<mxfile host="65bd71144e">
    <diagram id="jm_FPrBrQAz0Q-RB8WDx" name="Page-1">
        <mxGraphModel dx="5752" dy="3792" grid="1" gridSize="10" guides="1" tooltips="1" connect="1" arrows="1" fold="1" page="1" pageScale="1" pageWidth="1100" pageHeight="850" math="0" shadow="0">
            <root>
                <mxCell id="0"/>
                <mxCell id="1" parent="0"/>
                <mxCell id="fVUmnMzmdv8v57rQySdX-1" value="&lt;font style=&quot;font-size: 35px&quot;&gt;Inputs&lt;/font&gt;" style="rounded=1;whiteSpace=wrap;html=1;fontSize=16;strokeColor=#b85450;strokeWidth=4;fillColor=#f8cecc;glass=0;shadow=0;sketch=0;fontStyle=1;horizontal=1;verticalAlign=top;" parent="1" vertex="1">
                    <mxGeometry x="-940" y="285.44" width="730" height="874.56" as="geometry"/>
                </mxCell>
                <mxCell id="fVUmnMzmdv8v57rQySdX-2" value="" style="rounded=1;whiteSpace=wrap;html=1;fontSize=16;strokeColor=#b85450;strokeWidth=4;fillColor=#f8cecc;glass=0;shadow=0;sketch=0;fontStyle=1;verticalAlign=top;opacity=80;align=left;" parent="1" vertex="1">
                    <mxGeometry x="-10" y="190" width="1120" height="2260" as="geometry"/>
                </mxCell>
                <mxCell id="fVUmnMzmdv8v57rQySdX-3" style="edgeStyle=orthogonalEdgeStyle;rounded=1;jumpStyle=arc;orthogonalLoop=1;jettySize=auto;html=1;fontSize=33;fontColor=#000000;startArrow=none;startFill=0;endArrow=classic;endFill=1;endSize=5;strokeColor=#000000;strokeWidth=6;" parent="1" source="fVUmnMzmdv8v57rQySdX-4" target="fVUmnMzmdv8v57rQySdX-7" edge="1">
                    <mxGeometry relative="1" as="geometry"/>
                </mxCell>
                <mxCell id="fVUmnMzmdv8v57rQySdX-4" value="&lt;b style=&quot;font-size: 30px;&quot;&gt;Arch Config&amp;nbsp;&lt;/b&gt;&lt;br style=&quot;font-size: 30px;&quot;&gt;&lt;div style=&quot;font-size: 30px;&quot;&gt;&lt;b style=&quot;font-size: 30px;&quot;&gt;&lt;br style=&quot;font-size: 30px;&quot;&gt;&lt;/b&gt;&lt;/div&gt;&lt;b style=&quot;font-size: 30px;&quot;&gt;PE Budget Range&lt;/b&gt;&lt;br style=&quot;font-size: 30px;&quot;&gt;&lt;b style=&quot;font-size: 30px;&quot;&gt;Filter Unroll Range&lt;/b&gt;&lt;br style=&quot;font-size: 30px;&quot;&gt;&lt;b style=&quot;font-size: 30px;&quot;&gt;Channel Unroll Range&lt;/b&gt;&lt;br style=&quot;font-size: 30px;&quot;&gt;&lt;b style=&quot;font-size: 30px;&quot;&gt;Kernel Sizes supported Directly&lt;/b&gt;&lt;br style=&quot;font-size: 30px;&quot;&gt;&lt;div style=&quot;font-size: 30px;&quot;&gt;&lt;b style=&quot;font-size: 30px;&quot;&gt;GEMM Lowering/Lifting Mode&lt;/b&gt;&lt;/div&gt;" style="rounded=1;whiteSpace=wrap;html=1;fontSize=30;strokeColor=#b85450;strokeWidth=4;fillColor=#f8cecc;glass=0;shadow=0;sketch=0;align=center;" parent="1" vertex="1">
                    <mxGeometry x="-867.02" y="395" width="565" height="300" as="geometry"/>
                </mxCell>
                <mxCell id="fVUmnMzmdv8v57rQySdX-5" style="edgeStyle=orthogonalEdgeStyle;rounded=1;jumpStyle=arc;orthogonalLoop=1;jettySize=auto;html=1;entryX=0;entryY=0.5;entryDx=0;entryDy=0;fontSize=33;fontColor=#000000;startArrow=none;startFill=0;endArrow=classic;endFill=1;endSize=5;strokeColor=#000000;strokeWidth=6;" parent="1" source="fVUmnMzmdv8v57rQySdX-6" target="fVUmnMzmdv8v57rQySdX-7" edge="1">
                    <mxGeometry relative="1" as="geometry"/>
                </mxCell>
                <mxCell id="fVUmnMzmdv8v57rQySdX-6" value="Model Library" style="rounded=1;whiteSpace=wrap;html=1;fontSize=35;strokeColor=#b85450;strokeWidth=4;fillColor=#f8cecc;glass=0;shadow=0;sketch=0;fontStyle=1;horizontal=1;verticalAlign=top;" parent="1" vertex="1">
                    <mxGeometry x="-860" y="760" width="590" height="360" as="geometry"/>
                </mxCell>
                <mxCell id="fVUmnMzmdv8v57rQySdX-7" value="&lt;font style=&quot;font-size: 35px&quot;&gt;Select Arch Config&lt;/font&gt;" style="rounded=1;whiteSpace=wrap;html=1;fontSize=16;strokeColor=#b85450;strokeWidth=4;fillColor=#f8cecc;glass=0;shadow=0;sketch=0;fontStyle=1;horizontal=1;verticalAlign=top;" parent="1" vertex="1">
                    <mxGeometry x="140" y="360" width="750" height="370" as="geometry"/>
                </mxCell>
                <mxCell id="fVUmnMzmdv8v57rQySdX-8" style="edgeStyle=orthogonalEdgeStyle;orthogonalLoop=1;jettySize=auto;html=1;entryX=1;entryY=0.5;entryDx=0;entryDy=0;fontSize=16;fontColor=#000000;startArrow=none;startFill=0;endArrow=classic;endFill=1;endSize=5;strokeColor=#000000;strokeWidth=6;exitX=1;exitY=0.5;exitDx=0;exitDy=0;rounded=1;" parent="1" source="fVUmnMzmdv8v57rQySdX-10" target="fVUmnMzmdv8v57rQySdX-172" edge="1">
                    <mxGeometry relative="1" as="geometry">
                        <Array as="points">
                            <mxPoint x="879.95" y="1335"/>
                            <mxPoint x="879.95" y="845"/>
                        </Array>
                    </mxGeometry>
                </mxCell>
                <mxCell id="fVUmnMzmdv8v57rQySdX-9" style="edgeStyle=orthogonalEdgeStyle;curved=1;orthogonalLoop=1;jettySize=auto;html=1;entryX=0.5;entryY=0;entryDx=0;entryDy=0;fontSize=16;fontColor=#000000;startArrow=none;startFill=0;endArrow=classic;endFill=1;endSize=5;strokeColor=#000000;strokeWidth=6;" parent="1" source="fVUmnMzmdv8v57rQySdX-10" target="fVUmnMzmdv8v57rQySdX-175" edge="1">
                    <mxGeometry relative="1" as="geometry"/>
                </mxCell>
                <mxCell id="fVUmnMzmdv8v57rQySdX-10" value="Get Layer Utilization Statistics" style="rounded=1;whiteSpace=wrap;html=1;fontSize=33;strokeColor=#b85450;strokeWidth=4;fillColor=#f8cecc;glass=0;shadow=0;sketch=0;fontStyle=1;verticalAlign=top;" parent="1" vertex="1">
                    <mxGeometry x="232.89" y="950" width="565.87" height="770" as="geometry"/>
                </mxCell>
                <mxCell id="fVUmnMzmdv8v57rQySdX-11" value="Report Top-1 avg model utilization for each Arch config at each PE budget Value" style="rounded=1;whiteSpace=wrap;html=1;fontSize=32;strokeColor=#b85450;strokeWidth=4;fillColor=#f8cecc;glass=0;shadow=0;sketch=0;fontStyle=1;horizontal=1;verticalAlign=top;" parent="1" vertex="1">
                    <mxGeometry x="-940" y="1720" width="735" height="490" as="geometry"/>
                </mxCell>
                <mxCell id="fVUmnMzmdv8v57rQySdX-12" value="" style="rounded=1;whiteSpace=wrap;html=1;fillColor=#fff2cc;opacity=40;strokeColor=#000000;glass=0;strokeWidth=2;fontStyle=1" parent="1" vertex="1">
                    <mxGeometry x="220" y="421.77" width="620" height="270" as="geometry"/>
                </mxCell>
                <mxCell id="fVUmnMzmdv8v57rQySdX-13" value="" style="rounded=1;whiteSpace=wrap;html=1;fillColor=#67AB9F;opacity=40;strokeColor=#000000;glass=0;strokeWidth=2;fontStyle=1" parent="1" vertex="1">
                    <mxGeometry x="332.4699999999998" y="437.04999999999995" width="497.53" height="244.72" as="geometry"/>
                </mxCell>
                <mxCell id="fVUmnMzmdv8v57rQySdX-14" value="" style="rounded=1;whiteSpace=wrap;html=1;fillColor=#E6D0DE;opacity=40;strokeColor=#000000;glass=0;strokeWidth=2;fontStyle=1" parent="1" vertex="1">
                    <mxGeometry x="232.0300000000002" y="532.05" width="587.97" height="99.72" as="geometry"/>
                </mxCell>
                <mxCell id="fVUmnMzmdv8v57rQySdX-15" value="" style="ellipse;whiteSpace=wrap;html=1;aspect=fixed;fillColor=#67AB9F;strokeWidth=2;strokeColor=#000000;fontStyle=1" parent="1" vertex="1">
                    <mxGeometry x="405.9979303675045" y="547.5007692307693" width="22.678916827852998" height="22.678916827852998" as="geometry"/>
                </mxCell>
                <mxCell id="fVUmnMzmdv8v57rQySdX-16" value="" style="endArrow=none;html=1;rounded=0;startSize=1;endSize=1;strokeColor=#000000;strokeWidth=2;jumpStyle=arc;jumpSize=6;exitX=0;exitY=0;exitDx=0;exitDy=0;entryX=1;entryY=1;entryDx=0;entryDy=0;fontStyle=1" parent="1" source="fVUmnMzmdv8v57rQySdX-15" target="fVUmnMzmdv8v57rQySdX-15" edge="1">
                    <mxGeometry width="50" height="50" relative="1" as="geometry">
                        <mxPoint x="428.67684719535737" y="554.6700000000001" as="sourcePoint"/>
                        <mxPoint x="444.8760735009673" y="536.7469230769232" as="targetPoint"/>
                    </mxGeometry>
                </mxCell>
                <mxCell id="fVUmnMzmdv8v57rQySdX-17" value="" style="endArrow=none;html=1;rounded=0;startSize=1;endSize=1;strokeColor=#000000;strokeWidth=2;jumpStyle=none;jumpSize=6;exitX=0;exitY=1;exitDx=0;exitDy=0;entryX=1;entryY=0;entryDx=0;entryDy=0;fontStyle=1" parent="1" source="fVUmnMzmdv8v57rQySdX-15" target="fVUmnMzmdv8v57rQySdX-15" edge="1">
                    <mxGeometry width="50" height="50" relative="1" as="geometry">
                        <mxPoint x="412.55902610308385" y="554.7600679991147" as="sourcePoint"/>
                        <mxPoint x="428.59544198202184" y="572.5030089239622" as="targetPoint"/>
                    </mxGeometry>
                </mxCell>
                <mxCell id="fVUmnMzmdv8v57rQySdX-18" value="" style="ellipse;whiteSpace=wrap;html=1;aspect=fixed;fillColor=#67AB9F;strokeWidth=2;strokeColor=#000000;fontStyle=1" parent="1" vertex="1">
                    <mxGeometry x="405.9979303675045" y="594.1007692307694" width="22.678916827852998" height="22.678916827852998" as="geometry"/>
                </mxCell>
                <mxCell id="fVUmnMzmdv8v57rQySdX-19" value="" style="endArrow=none;html=1;rounded=0;startSize=1;endSize=1;strokeColor=#000000;strokeWidth=2;jumpStyle=arc;jumpSize=6;exitX=0;exitY=0;exitDx=0;exitDy=0;entryX=1;entryY=1;entryDx=0;entryDy=0;fontStyle=1" parent="1" source="fVUmnMzmdv8v57rQySdX-18" target="fVUmnMzmdv8v57rQySdX-18" edge="1">
                    <mxGeometry width="50" height="50" relative="1" as="geometry">
                        <mxPoint x="428.67684719535737" y="601.27" as="sourcePoint"/>
                        <mxPoint x="444.8760735009673" y="583.3469230769231" as="targetPoint"/>
                    </mxGeometry>
                </mxCell>
                <mxCell id="fVUmnMzmdv8v57rQySdX-20" value="" style="endArrow=none;html=1;rounded=0;startSize=1;endSize=1;strokeColor=#000000;strokeWidth=2;jumpStyle=none;jumpSize=6;exitX=0;exitY=1;exitDx=0;exitDy=0;entryX=1;entryY=0;entryDx=0;entryDy=0;fontStyle=1" parent="1" source="fVUmnMzmdv8v57rQySdX-18" target="fVUmnMzmdv8v57rQySdX-18" edge="1">
                    <mxGeometry width="50" height="50" relative="1" as="geometry">
                        <mxPoint x="412.55902610308385" y="601.3600679991148" as="sourcePoint"/>
                        <mxPoint x="428.59544198202184" y="619.1030089239623" as="targetPoint"/>
                    </mxGeometry>
                </mxCell>
                <mxCell id="fVUmnMzmdv8v57rQySdX-21" value="" style="ellipse;whiteSpace=wrap;html=1;aspect=fixed;fillColor=#67AB9F;strokeWidth=2;strokeColor=#000000;fontStyle=1" parent="1" vertex="1">
                    <mxGeometry x="469.82288201160554" y="547.5007692307693" width="22.678916827852998" height="22.678916827852998" as="geometry"/>
                </mxCell>
                <mxCell id="fVUmnMzmdv8v57rQySdX-22" value="" style="endArrow=none;html=1;rounded=0;startSize=1;endSize=1;strokeColor=#000000;strokeWidth=2;jumpStyle=arc;jumpSize=6;exitX=0;exitY=0;exitDx=0;exitDy=0;entryX=1;entryY=1;entryDx=0;entryDy=0;fontStyle=1" parent="1" source="fVUmnMzmdv8v57rQySdX-21" target="fVUmnMzmdv8v57rQySdX-21" edge="1">
                    <mxGeometry width="50" height="50" relative="1" as="geometry">
                        <mxPoint x="492.5017988394584" y="554.6700000000001" as="sourcePoint"/>
                        <mxPoint x="508.70102514506743" y="536.7469230769232" as="targetPoint"/>
                    </mxGeometry>
                </mxCell>
                <mxCell id="fVUmnMzmdv8v57rQySdX-23" value="" style="endArrow=none;html=1;rounded=0;startSize=1;endSize=1;strokeColor=#000000;strokeWidth=2;jumpStyle=none;jumpSize=6;exitX=0;exitY=1;exitDx=0;exitDy=0;entryX=1;entryY=0;entryDx=0;entryDy=0;fontStyle=1" parent="1" source="fVUmnMzmdv8v57rQySdX-21" target="fVUmnMzmdv8v57rQySdX-21" edge="1">
                    <mxGeometry width="50" height="50" relative="1" as="geometry">
                        <mxPoint x="476.3839777471849" y="554.7600679991147" as="sourcePoint"/>
                        <mxPoint x="492.42039362612286" y="572.5030089239622" as="targetPoint"/>
                    </mxGeometry>
                </mxCell>
                <mxCell id="fVUmnMzmdv8v57rQySdX-24" value="" style="ellipse;whiteSpace=wrap;html=1;aspect=fixed;fillColor=#67AB9F;strokeWidth=2;strokeColor=#000000;fontStyle=1" parent="1" vertex="1">
                    <mxGeometry x="469.82288201160554" y="594.1007692307694" width="22.678916827852998" height="22.678916827852998" as="geometry"/>
                </mxCell>
                <mxCell id="fVUmnMzmdv8v57rQySdX-25" value="" style="endArrow=none;html=1;rounded=0;startSize=1;endSize=1;strokeColor=#000000;strokeWidth=2;jumpStyle=arc;jumpSize=6;exitX=0;exitY=0;exitDx=0;exitDy=0;entryX=1;entryY=1;entryDx=0;entryDy=0;fontStyle=1" parent="1" source="fVUmnMzmdv8v57rQySdX-24" target="fVUmnMzmdv8v57rQySdX-24" edge="1">
                    <mxGeometry width="50" height="50" relative="1" as="geometry">
                        <mxPoint x="492.5017988394584" y="601.27" as="sourcePoint"/>
                        <mxPoint x="508.70102514506743" y="583.3469230769231" as="targetPoint"/>
                    </mxGeometry>
                </mxCell>
                <mxCell id="fVUmnMzmdv8v57rQySdX-26" value="" style="endArrow=none;html=1;rounded=0;startSize=1;endSize=1;strokeColor=#000000;strokeWidth=2;jumpStyle=none;jumpSize=6;exitX=0;exitY=1;exitDx=0;exitDy=0;entryX=1;entryY=0;entryDx=0;entryDy=0;fontStyle=1" parent="1" source="fVUmnMzmdv8v57rQySdX-24" target="fVUmnMzmdv8v57rQySdX-24" edge="1">
                    <mxGeometry width="50" height="50" relative="1" as="geometry">
                        <mxPoint x="476.3839777471849" y="601.3600679991148" as="sourcePoint"/>
                        <mxPoint x="492.42039362612286" y="619.1030089239623" as="targetPoint"/>
                    </mxGeometry>
                </mxCell>
                <mxCell id="fVUmnMzmdv8v57rQySdX-27" value="Weight&amp;nbsp;&lt;br style=&quot;font-size: 12px;&quot;&gt;Multipication" style="text;html=1;strokeColor=none;fillColor=none;align=left;verticalAlign=middle;whiteSpace=wrap;rounded=0;glass=0;fontSize=12;strokeWidth=2;fontStyle=1" parent="1" vertex="1">
                    <mxGeometry x="365.0047582205034" y="631.7676923076922" width="64.79366537717603" height="46.599999999999994" as="geometry"/>
                </mxCell>
                <mxCell id="fVUmnMzmdv8v57rQySdX-28" value="Partial Sum Tree/Systolic Reduction" style="text;html=1;strokeColor=none;fillColor=none;align=left;verticalAlign=middle;whiteSpace=wrap;rounded=0;glass=0;fontSize=12;strokeWidth=2;fontStyle=1" parent="1" vertex="1">
                    <mxGeometry x="246" y="559.26" width="78" height="46.6" as="geometry"/>
                </mxCell>
                <mxCell id="fVUmnMzmdv8v57rQySdX-29" value="" style="shape=curlyBracket;whiteSpace=wrap;html=1;rounded=1;glass=0;fontSize=50;fontColor=#000000;strokeColor=#000000;strokeWidth=2;fillColor=#0000FF;fontStyle=1" parent="1" vertex="1">
                    <mxGeometry x="376" y="543.35" width="19.44" height="78.42" as="geometry"/>
                </mxCell>
                <mxCell id="fVUmnMzmdv8v57rQySdX-30" value="Filter Concurrency F= 2" style="text;html=1;strokeColor=none;fillColor=none;align=center;verticalAlign=middle;whiteSpace=wrap;rounded=0;glass=0;fontSize=12;fontColor=#000000;horizontal=0;strokeWidth=2;fontStyle=1" parent="1" vertex="1">
                    <mxGeometry x="345.5642940038683" y="576.4415384615384" width="19.43907156673114" height="10.753846153846153" as="geometry"/>
                </mxCell>
                <mxCell id="fVUmnMzmdv8v57rQySdX-31" value="" style="shape=curlyBracket;whiteSpace=wrap;html=1;rounded=1;glass=0;fontSize=50;fontColor=#000000;strokeColor=#000000;strokeWidth=2;fillColor=#0000FF;rotation=90;size=0.5;fontStyle=1" parent="1" vertex="1">
                    <mxGeometry x="596" y="310" width="19.46" height="410.65" as="geometry"/>
                </mxCell>
                <mxCell id="fVUmnMzmdv8v57rQySdX-32" value="Channel Unroll = 16&lt;br&gt;" style="text;html=1;strokeColor=none;fillColor=none;align=center;verticalAlign=middle;whiteSpace=wrap;rounded=0;glass=0;fontSize=12;fontColor=#000000;horizontal=0;rotation=90;strokeWidth=2;fontStyle=1" parent="1" vertex="1">
                    <mxGeometry x="599.0020696324955" y="390.0007692307694" width="19.43907156673114" height="216.86923076923077" as="geometry"/>
                </mxCell>
                <mxCell id="fVUmnMzmdv8v57rQySdX-33" value="" style="endArrow=classic;html=1;rounded=0;fontSize=30;fontColor=#990000;strokeWidth=2;endFill=1;fontStyle=1" parent="1" edge="1">
                    <mxGeometry width="50" height="50" relative="1" as="geometry">
                        <mxPoint x="374.5841392649909" y="471.10769230769256" as="sourcePoint"/>
                        <mxPoint x="426.42166344293946" y="471.10769230769256" as="targetPoint"/>
                    </mxGeometry>
                </mxCell>
                <mxCell id="fVUmnMzmdv8v57rQySdX-34" value="" style="endArrow=classic;html=1;rounded=0;fontSize=30;fontColor=#990000;strokeWidth=2;endFill=1;fontStyle=1" parent="1" edge="1">
                    <mxGeometry width="50" height="50" relative="1" as="geometry">
                        <mxPoint x="375" y="471" as="sourcePoint"/>
                        <mxPoint x="375" y="514.5299999999997" as="targetPoint"/>
                    </mxGeometry>
                </mxCell>
                <mxCell id="fVUmnMzmdv8v57rQySdX-35" value="Horizontal Axis" style="text;html=1;strokeColor=none;fillColor=none;align=center;verticalAlign=middle;whiteSpace=wrap;rounded=0;fontSize=12;fontColor=#000000;strokeWidth=2;fontStyle=1" parent="1" vertex="1">
                    <mxGeometry x="368.1012088974858" y="450.4961538461539" width="58.317214700193425" height="14.338461538461537" as="geometry"/>
                </mxCell>
                <mxCell id="fVUmnMzmdv8v57rQySdX-36" value="Vertical Axis" style="text;html=1;strokeColor=none;fillColor=none;align=center;verticalAlign=middle;whiteSpace=wrap;rounded=0;fontSize=12;fontColor=#000000;horizontal=0;strokeWidth=2;fontStyle=1" parent="1" vertex="1">
                    <mxGeometry x="332.46630560928406" y="480.9976923076923" width="48.59767891682785" height="14.338461538461537" as="geometry"/>
                </mxCell>
                <mxCell id="fVUmnMzmdv8v57rQySdX-37" value="Example F|C ACC Architecture" style="text;html=1;strokeColor=none;fillColor=none;align=center;verticalAlign=middle;whiteSpace=wrap;rounded=0;glass=0;fontSize=12;fontColor=#000000;horizontal=0;rotation=90;strokeWidth=2;fontStyle=1" parent="1" vertex="1">
                    <mxGeometry x="275.27999999999975" y="390" width="19.44" height="130.11" as="geometry"/>
                </mxCell>
                <mxCell id="fVUmnMzmdv8v57rQySdX-38" value="" style="group;fontStyle=1;strokeWidth=2;" parent="1" vertex="1" connectable="0">
                    <mxGeometry x="442.9981044487431" y="575.5030769230771" width="12.9593810444876" height="12.959381044487372" as="geometry"/>
                </mxCell>
                <mxCell id="fVUmnMzmdv8v57rQySdX-39" value="" style="ellipse;whiteSpace=wrap;html=1;aspect=fixed;fillColor=#e1d5e7;strokeColor=#000000;strokeWidth=2;fontStyle=1" parent="fVUmnMzmdv8v57rQySdX-38" vertex="1">
                    <mxGeometry width="12.959381044487428" height="12.959381044487428" as="geometry"/>
                </mxCell>
                <mxCell id="fVUmnMzmdv8v57rQySdX-40" value="" style="endArrow=none;html=1;rounded=0;strokeColor=#000000;entryX=0.5;entryY=0;entryDx=0;entryDy=0;exitX=0.5;exitY=1;exitDx=0;exitDy=0;strokeWidth=2;fontStyle=1" parent="fVUmnMzmdv8v57rQySdX-38" source="fVUmnMzmdv8v57rQySdX-39" edge="1">
                    <mxGeometry width="50" height="50" relative="1" as="geometry">
                        <mxPoint x="6.4796905222438" y="14.338461538461615" as="sourcePoint"/>
                        <mxPoint x="6.4796905222438" as="targetPoint"/>
                    </mxGeometry>
                </mxCell>
                <mxCell id="fVUmnMzmdv8v57rQySdX-41" value="" style="endArrow=none;html=1;rounded=0;strokeColor=#000000;entryX=0;entryY=0.5;entryDx=0;entryDy=0;exitX=1;exitY=0.5;exitDx=0;exitDy=0;strokeWidth=2;fontStyle=1" parent="fVUmnMzmdv8v57rQySdX-38" source="fVUmnMzmdv8v57rQySdX-39" target="fVUmnMzmdv8v57rQySdX-39" edge="1">
                    <mxGeometry width="50" height="50" relative="1" as="geometry">
                        <mxPoint x="12.9593810444876" y="7.169230769230808" as="sourcePoint"/>
                        <mxPoint y="7.169230769230808" as="targetPoint"/>
                    </mxGeometry>
                </mxCell>
                <mxCell id="fVUmnMzmdv8v57rQySdX-42" value="" style="group;fontStyle=1;strokeWidth=2;" parent="1" vertex="1" connectable="0">
                    <mxGeometry x="503.9981044487431" y="575.5030769230771" width="12.9593810444876" height="12.959381044487372" as="geometry"/>
                </mxCell>
                <mxCell id="fVUmnMzmdv8v57rQySdX-43" value="" style="ellipse;whiteSpace=wrap;html=1;aspect=fixed;fillColor=#e1d5e7;strokeColor=#000000;strokeWidth=2;fontStyle=1" parent="fVUmnMzmdv8v57rQySdX-42" vertex="1">
                    <mxGeometry width="12.959381044487428" height="12.959381044487428" as="geometry"/>
                </mxCell>
                <mxCell id="fVUmnMzmdv8v57rQySdX-44" value="" style="endArrow=none;html=1;rounded=0;strokeColor=#000000;entryX=0.5;entryY=0;entryDx=0;entryDy=0;exitX=0.5;exitY=1;exitDx=0;exitDy=0;strokeWidth=2;fontStyle=1" parent="fVUmnMzmdv8v57rQySdX-42" source="fVUmnMzmdv8v57rQySdX-43" edge="1">
                    <mxGeometry width="50" height="50" relative="1" as="geometry">
                        <mxPoint x="6.4796905222438" y="14.338461538461615" as="sourcePoint"/>
                        <mxPoint x="6.4796905222438" as="targetPoint"/>
                    </mxGeometry>
                </mxCell>
                <mxCell id="fVUmnMzmdv8v57rQySdX-45" value="" style="endArrow=none;html=1;rounded=0;strokeColor=#000000;entryX=0;entryY=0.5;entryDx=0;entryDy=0;exitX=1;exitY=0.5;exitDx=0;exitDy=0;strokeWidth=2;fontStyle=1" parent="fVUmnMzmdv8v57rQySdX-42" source="fVUmnMzmdv8v57rQySdX-43" target="fVUmnMzmdv8v57rQySdX-43" edge="1">
                    <mxGeometry width="50" height="50" relative="1" as="geometry">
                        <mxPoint x="12.9593810444876" y="7.169230769230808" as="sourcePoint"/>
                        <mxPoint y="7.169230769230808" as="targetPoint"/>
                    </mxGeometry>
                </mxCell>
                <mxCell id="fVUmnMzmdv8v57rQySdX-46" value="" style="ellipse;whiteSpace=wrap;html=1;aspect=fixed;fillColor=#67AB9F;strokeWidth=2;strokeColor=#000000;fontStyle=1" parent="1" vertex="1">
                    <mxGeometry x="525.9979303675045" y="547.5007692307693" width="22.678916827852998" height="22.678916827852998" as="geometry"/>
                </mxCell>
                <mxCell id="fVUmnMzmdv8v57rQySdX-47" value="" style="endArrow=none;html=1;rounded=0;startSize=1;endSize=1;strokeColor=#000000;strokeWidth=2;jumpStyle=arc;jumpSize=6;exitX=0;exitY=0;exitDx=0;exitDy=0;entryX=1;entryY=1;entryDx=0;entryDy=0;fontStyle=1" parent="1" source="fVUmnMzmdv8v57rQySdX-46" target="fVUmnMzmdv8v57rQySdX-46" edge="1">
                    <mxGeometry width="50" height="50" relative="1" as="geometry">
                        <mxPoint x="548.6768471953574" y="554.6700000000001" as="sourcePoint"/>
                        <mxPoint x="564.8760735009673" y="536.7469230769232" as="targetPoint"/>
                    </mxGeometry>
                </mxCell>
                <mxCell id="fVUmnMzmdv8v57rQySdX-48" value="" style="endArrow=none;html=1;rounded=0;startSize=1;endSize=1;strokeColor=#000000;strokeWidth=2;jumpStyle=none;jumpSize=6;exitX=0;exitY=1;exitDx=0;exitDy=0;entryX=1;entryY=0;entryDx=0;entryDy=0;fontStyle=1" parent="1" source="fVUmnMzmdv8v57rQySdX-46" target="fVUmnMzmdv8v57rQySdX-46" edge="1">
                    <mxGeometry width="50" height="50" relative="1" as="geometry">
                        <mxPoint x="532.5590261030839" y="554.7600679991147" as="sourcePoint"/>
                        <mxPoint x="548.5954419820218" y="572.5030089239622" as="targetPoint"/>
                    </mxGeometry>
                </mxCell>
                <mxCell id="fVUmnMzmdv8v57rQySdX-49" value="" style="ellipse;whiteSpace=wrap;html=1;aspect=fixed;fillColor=#67AB9F;strokeWidth=2;strokeColor=#000000;fontStyle=1" parent="1" vertex="1">
                    <mxGeometry x="525.9979303675045" y="594.1007692307694" width="22.678916827852998" height="22.678916827852998" as="geometry"/>
                </mxCell>
                <mxCell id="fVUmnMzmdv8v57rQySdX-50" value="" style="endArrow=none;html=1;rounded=0;startSize=1;endSize=1;strokeColor=#000000;strokeWidth=2;jumpStyle=arc;jumpSize=6;exitX=0;exitY=0;exitDx=0;exitDy=0;entryX=1;entryY=1;entryDx=0;entryDy=0;fontStyle=1" parent="1" source="fVUmnMzmdv8v57rQySdX-49" target="fVUmnMzmdv8v57rQySdX-49" edge="1">
                    <mxGeometry width="50" height="50" relative="1" as="geometry">
                        <mxPoint x="548.6768471953574" y="601.27" as="sourcePoint"/>
                        <mxPoint x="564.8760735009673" y="583.3469230769231" as="targetPoint"/>
                    </mxGeometry>
                </mxCell>
                <mxCell id="fVUmnMzmdv8v57rQySdX-51" value="" style="endArrow=none;html=1;rounded=0;startSize=1;endSize=1;strokeColor=#000000;strokeWidth=2;jumpStyle=none;jumpSize=6;exitX=0;exitY=1;exitDx=0;exitDy=0;entryX=1;entryY=0;entryDx=0;entryDy=0;fontStyle=1" parent="1" source="fVUmnMzmdv8v57rQySdX-49" target="fVUmnMzmdv8v57rQySdX-49" edge="1">
                    <mxGeometry width="50" height="50" relative="1" as="geometry">
                        <mxPoint x="532.5590261030839" y="601.3600679991148" as="sourcePoint"/>
                        <mxPoint x="548.5954419820218" y="619.1030089239623" as="targetPoint"/>
                    </mxGeometry>
                </mxCell>
                <mxCell id="fVUmnMzmdv8v57rQySdX-52" value="" style="ellipse;whiteSpace=wrap;html=1;aspect=fixed;fillColor=#67AB9F;strokeWidth=2;strokeColor=#000000;fontStyle=1" parent="1" vertex="1">
                    <mxGeometry x="589.8228820116055" y="547.5007692307693" width="22.678916827852998" height="22.678916827852998" as="geometry"/>
                </mxCell>
                <mxCell id="fVUmnMzmdv8v57rQySdX-53" value="" style="endArrow=none;html=1;rounded=0;startSize=1;endSize=1;strokeColor=#000000;strokeWidth=2;jumpStyle=arc;jumpSize=6;exitX=0;exitY=0;exitDx=0;exitDy=0;entryX=1;entryY=1;entryDx=0;entryDy=0;fontStyle=1" parent="1" source="fVUmnMzmdv8v57rQySdX-52" target="fVUmnMzmdv8v57rQySdX-52" edge="1">
                    <mxGeometry width="50" height="50" relative="1" as="geometry">
                        <mxPoint x="612.5017988394584" y="554.6700000000001" as="sourcePoint"/>
                        <mxPoint x="628.7010251450674" y="536.7469230769232" as="targetPoint"/>
                    </mxGeometry>
                </mxCell>
                <mxCell id="fVUmnMzmdv8v57rQySdX-54" value="" style="endArrow=none;html=1;rounded=0;startSize=1;endSize=1;strokeColor=#000000;strokeWidth=2;jumpStyle=none;jumpSize=6;exitX=0;exitY=1;exitDx=0;exitDy=0;entryX=1;entryY=0;entryDx=0;entryDy=0;fontStyle=1" parent="1" source="fVUmnMzmdv8v57rQySdX-52" target="fVUmnMzmdv8v57rQySdX-52" edge="1">
                    <mxGeometry width="50" height="50" relative="1" as="geometry">
                        <mxPoint x="596.3839777471849" y="554.7600679991147" as="sourcePoint"/>
                        <mxPoint x="612.4203936261229" y="572.5030089239622" as="targetPoint"/>
                    </mxGeometry>
                </mxCell>
                <mxCell id="fVUmnMzmdv8v57rQySdX-55" value="" style="ellipse;whiteSpace=wrap;html=1;aspect=fixed;fillColor=#67AB9F;strokeWidth=2;strokeColor=#000000;fontStyle=1" parent="1" vertex="1">
                    <mxGeometry x="589.8228820116055" y="594.1007692307694" width="22.678916827852998" height="22.678916827852998" as="geometry"/>
                </mxCell>
                <mxCell id="fVUmnMzmdv8v57rQySdX-56" value="" style="endArrow=none;html=1;rounded=0;startSize=1;endSize=1;strokeColor=#000000;strokeWidth=2;jumpStyle=arc;jumpSize=6;exitX=0;exitY=0;exitDx=0;exitDy=0;entryX=1;entryY=1;entryDx=0;entryDy=0;fontStyle=1" parent="1" source="fVUmnMzmdv8v57rQySdX-55" target="fVUmnMzmdv8v57rQySdX-55" edge="1">
                    <mxGeometry width="50" height="50" relative="1" as="geometry">
                        <mxPoint x="612.5017988394584" y="601.27" as="sourcePoint"/>
                        <mxPoint x="628.7010251450674" y="583.3469230769231" as="targetPoint"/>
                    </mxGeometry>
                </mxCell>
                <mxCell id="fVUmnMzmdv8v57rQySdX-57" value="" style="endArrow=none;html=1;rounded=0;startSize=1;endSize=1;strokeColor=#000000;strokeWidth=2;jumpStyle=none;jumpSize=6;exitX=0;exitY=1;exitDx=0;exitDy=0;entryX=1;entryY=0;entryDx=0;entryDy=0;fontStyle=1" parent="1" source="fVUmnMzmdv8v57rQySdX-55" target="fVUmnMzmdv8v57rQySdX-55" edge="1">
                    <mxGeometry width="50" height="50" relative="1" as="geometry">
                        <mxPoint x="596.3839777471849" y="601.3600679991148" as="sourcePoint"/>
                        <mxPoint x="612.4203936261229" y="619.1030089239623" as="targetPoint"/>
                    </mxGeometry>
                </mxCell>
                <mxCell id="fVUmnMzmdv8v57rQySdX-58" value="" style="ellipse;whiteSpace=wrap;html=1;aspect=fixed;fillColor=#67AB9F;strokeWidth=2;strokeColor=#000000;fontStyle=1" parent="1" vertex="1">
                    <mxGeometry x="786.0489555125732" y="546.5007692307693" width="22.678916827852998" height="22.678916827852998" as="geometry"/>
                </mxCell>
                <mxCell id="fVUmnMzmdv8v57rQySdX-59" value="" style="endArrow=none;html=1;rounded=0;startSize=1;endSize=1;strokeColor=#000000;strokeWidth=2;jumpStyle=arc;jumpSize=6;exitX=0;exitY=0;exitDx=0;exitDy=0;entryX=1;entryY=1;entryDx=0;entryDy=0;fontStyle=1" parent="1" source="fVUmnMzmdv8v57rQySdX-58" target="fVUmnMzmdv8v57rQySdX-58" edge="1">
                    <mxGeometry width="50" height="50" relative="1" as="geometry">
                        <mxPoint x="808.7278723404261" y="553.6700000000001" as="sourcePoint"/>
                        <mxPoint x="824.9270986460351" y="535.7469230769232" as="targetPoint"/>
                    </mxGeometry>
                </mxCell>
                <mxCell id="fVUmnMzmdv8v57rQySdX-60" value="" style="endArrow=none;html=1;rounded=0;startSize=1;endSize=1;strokeColor=#000000;strokeWidth=2;jumpStyle=none;jumpSize=6;exitX=0;exitY=1;exitDx=0;exitDy=0;entryX=1;entryY=0;entryDx=0;entryDy=0;fontStyle=1" parent="1" source="fVUmnMzmdv8v57rQySdX-58" target="fVUmnMzmdv8v57rQySdX-58" edge="1">
                    <mxGeometry width="50" height="50" relative="1" as="geometry">
                        <mxPoint x="792.6100512481516" y="553.7600679991147" as="sourcePoint"/>
                        <mxPoint x="808.6464671270905" y="571.5030089239622" as="targetPoint"/>
                    </mxGeometry>
                </mxCell>
                <mxCell id="fVUmnMzmdv8v57rQySdX-61" value="" style="ellipse;whiteSpace=wrap;html=1;aspect=fixed;fillColor=#67AB9F;strokeWidth=2;strokeColor=#000000;fontStyle=1" parent="1" vertex="1">
                    <mxGeometry x="786.0489555125732" y="593.1007692307694" width="22.678916827852998" height="22.678916827852998" as="geometry"/>
                </mxCell>
                <mxCell id="fVUmnMzmdv8v57rQySdX-62" value="" style="endArrow=none;html=1;rounded=0;startSize=1;endSize=1;strokeColor=#000000;strokeWidth=2;jumpStyle=arc;jumpSize=6;exitX=0;exitY=0;exitDx=0;exitDy=0;entryX=1;entryY=1;entryDx=0;entryDy=0;fontStyle=1" parent="1" source="fVUmnMzmdv8v57rQySdX-61" target="fVUmnMzmdv8v57rQySdX-61" edge="1">
                    <mxGeometry width="50" height="50" relative="1" as="geometry">
                        <mxPoint x="808.7278723404261" y="600.27" as="sourcePoint"/>
                        <mxPoint x="824.9270986460351" y="582.3469230769231" as="targetPoint"/>
                    </mxGeometry>
                </mxCell>
                <mxCell id="fVUmnMzmdv8v57rQySdX-63" value="" style="endArrow=none;html=1;rounded=0;startSize=1;endSize=1;strokeColor=#000000;strokeWidth=2;jumpStyle=none;jumpSize=6;exitX=0;exitY=1;exitDx=0;exitDy=0;entryX=1;entryY=0;entryDx=0;entryDy=0;fontStyle=1" parent="1" source="fVUmnMzmdv8v57rQySdX-61" target="fVUmnMzmdv8v57rQySdX-61" edge="1">
                    <mxGeometry width="50" height="50" relative="1" as="geometry">
                        <mxPoint x="792.6100512481516" y="600.3600679991148" as="sourcePoint"/>
                        <mxPoint x="808.6464671270905" y="618.1030089239623" as="targetPoint"/>
                    </mxGeometry>
                </mxCell>
                <mxCell id="fVUmnMzmdv8v57rQySdX-64" value="" style="group;fontStyle=1;strokeWidth=2;" parent="1" vertex="1" connectable="0">
                    <mxGeometry x="562.9981044487431" y="575.5030769230771" width="12.9593810444876" height="12.959381044487372" as="geometry"/>
                </mxCell>
                <mxCell id="fVUmnMzmdv8v57rQySdX-65" value="" style="ellipse;whiteSpace=wrap;html=1;aspect=fixed;fillColor=#e1d5e7;strokeColor=#000000;strokeWidth=2;fontStyle=1" parent="fVUmnMzmdv8v57rQySdX-64" vertex="1">
                    <mxGeometry width="12.959381044487428" height="12.959381044487428" as="geometry"/>
                </mxCell>
                <mxCell id="fVUmnMzmdv8v57rQySdX-66" value="" style="endArrow=none;html=1;rounded=0;strokeColor=#000000;entryX=0.5;entryY=0;entryDx=0;entryDy=0;exitX=0.5;exitY=1;exitDx=0;exitDy=0;strokeWidth=2;fontStyle=1" parent="fVUmnMzmdv8v57rQySdX-64" source="fVUmnMzmdv8v57rQySdX-65" edge="1">
                    <mxGeometry width="50" height="50" relative="1" as="geometry">
                        <mxPoint x="6.4796905222438" y="14.338461538461615" as="sourcePoint"/>
                        <mxPoint x="6.4796905222438" as="targetPoint"/>
                    </mxGeometry>
                </mxCell>
                <mxCell id="fVUmnMzmdv8v57rQySdX-67" value="" style="endArrow=none;html=1;rounded=0;strokeColor=#000000;entryX=0;entryY=0.5;entryDx=0;entryDy=0;exitX=1;exitY=0.5;exitDx=0;exitDy=0;strokeWidth=2;fontStyle=1" parent="fVUmnMzmdv8v57rQySdX-64" source="fVUmnMzmdv8v57rQySdX-65" target="fVUmnMzmdv8v57rQySdX-65" edge="1">
                    <mxGeometry width="50" height="50" relative="1" as="geometry">
                        <mxPoint x="12.9593810444876" y="7.169230769230808" as="sourcePoint"/>
                        <mxPoint y="7.169230769230808" as="targetPoint"/>
                    </mxGeometry>
                </mxCell>
                <mxCell id="fVUmnMzmdv8v57rQySdX-68" value="" style="endArrow=none;dashed=1;html=1;dashPattern=1 3;strokeWidth=2;rounded=0;fontSize=12;fontStyle=1" parent="1" edge="1">
                    <mxGeometry width="50" height="50" relative="1" as="geometry">
                        <mxPoint x="744" y="557.7800000000007" as="sourcePoint"/>
                        <mxPoint x="781" y="557.7800000000007" as="targetPoint"/>
                    </mxGeometry>
                </mxCell>
                <mxCell id="fVUmnMzmdv8v57rQySdX-69" value="" style="group;fontStyle=1;strokeWidth=2;" parent="1" vertex="1" connectable="0">
                    <mxGeometry x="622.9981044487431" y="575.5030769230771" width="12.9593810444876" height="12.959381044487372" as="geometry"/>
                </mxCell>
                <mxCell id="fVUmnMzmdv8v57rQySdX-70" value="" style="ellipse;whiteSpace=wrap;html=1;aspect=fixed;fillColor=#e1d5e7;strokeColor=#000000;strokeWidth=2;fontStyle=1" parent="fVUmnMzmdv8v57rQySdX-69" vertex="1">
                    <mxGeometry width="12.959381044487428" height="12.959381044487428" as="geometry"/>
                </mxCell>
                <mxCell id="fVUmnMzmdv8v57rQySdX-71" value="" style="endArrow=none;html=1;rounded=0;strokeColor=#000000;entryX=0.5;entryY=0;entryDx=0;entryDy=0;exitX=0.5;exitY=1;exitDx=0;exitDy=0;strokeWidth=2;fontStyle=1" parent="fVUmnMzmdv8v57rQySdX-69" source="fVUmnMzmdv8v57rQySdX-70" edge="1">
                    <mxGeometry width="50" height="50" relative="1" as="geometry">
                        <mxPoint x="6.4796905222438" y="14.338461538461615" as="sourcePoint"/>
                        <mxPoint x="6.4796905222438" as="targetPoint"/>
                    </mxGeometry>
                </mxCell>
                <mxCell id="fVUmnMzmdv8v57rQySdX-72" value="" style="endArrow=none;html=1;rounded=0;strokeColor=#000000;entryX=0;entryY=0.5;entryDx=0;entryDy=0;exitX=1;exitY=0.5;exitDx=0;exitDy=0;strokeWidth=2;fontStyle=1" parent="fVUmnMzmdv8v57rQySdX-69" source="fVUmnMzmdv8v57rQySdX-70" target="fVUmnMzmdv8v57rQySdX-70" edge="1">
                    <mxGeometry width="50" height="50" relative="1" as="geometry">
                        <mxPoint x="12.9593810444876" y="7.169230769230808" as="sourcePoint"/>
                        <mxPoint y="7.169230769230808" as="targetPoint"/>
                    </mxGeometry>
                </mxCell>
                <mxCell id="fVUmnMzmdv8v57rQySdX-73" value="" style="endArrow=none;dashed=1;html=1;dashPattern=1 3;strokeWidth=2;rounded=0;fontSize=12;fontStyle=1" parent="1" edge="1">
                    <mxGeometry width="50" height="50" relative="1" as="geometry">
                        <mxPoint x="744" y="604.3800000000001" as="sourcePoint"/>
                        <mxPoint x="781" y="604.3800000000001" as="targetPoint"/>
                    </mxGeometry>
                </mxCell>
                <mxCell id="fVUmnMzmdv8v57rQySdX-74" value="" style="ellipse;whiteSpace=wrap;html=1;aspect=fixed;fillColor=#67AB9F;strokeWidth=2;strokeColor=#000000;fontStyle=1" parent="1" vertex="1">
                    <mxGeometry x="645.9979303675045" y="547.3407692307692" width="22.678916827852998" height="22.678916827852998" as="geometry"/>
                </mxCell>
                <mxCell id="fVUmnMzmdv8v57rQySdX-75" value="" style="endArrow=none;html=1;rounded=0;startSize=1;endSize=1;strokeColor=#000000;strokeWidth=2;jumpStyle=arc;jumpSize=6;exitX=0;exitY=0;exitDx=0;exitDy=0;entryX=1;entryY=1;entryDx=0;entryDy=0;fontStyle=1" parent="1" source="fVUmnMzmdv8v57rQySdX-74" target="fVUmnMzmdv8v57rQySdX-74" edge="1">
                    <mxGeometry width="50" height="50" relative="1" as="geometry">
                        <mxPoint x="668.6768471953574" y="554.51" as="sourcePoint"/>
                        <mxPoint x="684.8760735009673" y="536.5869230769231" as="targetPoint"/>
                    </mxGeometry>
                </mxCell>
                <mxCell id="fVUmnMzmdv8v57rQySdX-76" value="" style="endArrow=none;html=1;rounded=0;startSize=1;endSize=1;strokeColor=#000000;strokeWidth=2;jumpStyle=none;jumpSize=6;exitX=0;exitY=1;exitDx=0;exitDy=0;entryX=1;entryY=0;entryDx=0;entryDy=0;fontStyle=1" parent="1" source="fVUmnMzmdv8v57rQySdX-74" target="fVUmnMzmdv8v57rQySdX-74" edge="1">
                    <mxGeometry width="50" height="50" relative="1" as="geometry">
                        <mxPoint x="652.5590261030839" y="554.6000679991146" as="sourcePoint"/>
                        <mxPoint x="668.5954419820218" y="572.3430089239621" as="targetPoint"/>
                    </mxGeometry>
                </mxCell>
                <mxCell id="fVUmnMzmdv8v57rQySdX-77" value="" style="ellipse;whiteSpace=wrap;html=1;aspect=fixed;fillColor=#67AB9F;strokeWidth=2;strokeColor=#000000;fontStyle=1" parent="1" vertex="1">
                    <mxGeometry x="645.9979303675045" y="593.9407692307693" width="22.678916827852998" height="22.678916827852998" as="geometry"/>
                </mxCell>
                <mxCell id="fVUmnMzmdv8v57rQySdX-78" value="" style="endArrow=none;html=1;rounded=0;startSize=1;endSize=1;strokeColor=#000000;strokeWidth=2;jumpStyle=arc;jumpSize=6;exitX=0;exitY=0;exitDx=0;exitDy=0;entryX=1;entryY=1;entryDx=0;entryDy=0;fontStyle=1" parent="1" source="fVUmnMzmdv8v57rQySdX-77" target="fVUmnMzmdv8v57rQySdX-77" edge="1">
                    <mxGeometry width="50" height="50" relative="1" as="geometry">
                        <mxPoint x="668.6768471953574" y="601.1099999999999" as="sourcePoint"/>
                        <mxPoint x="684.8760735009673" y="583.186923076923" as="targetPoint"/>
                    </mxGeometry>
                </mxCell>
                <mxCell id="fVUmnMzmdv8v57rQySdX-79" value="" style="endArrow=none;html=1;rounded=0;startSize=1;endSize=1;strokeColor=#000000;strokeWidth=2;jumpStyle=none;jumpSize=6;exitX=0;exitY=1;exitDx=0;exitDy=0;entryX=1;entryY=0;entryDx=0;entryDy=0;fontStyle=1" parent="1" source="fVUmnMzmdv8v57rQySdX-77" target="fVUmnMzmdv8v57rQySdX-77" edge="1">
                    <mxGeometry width="50" height="50" relative="1" as="geometry">
                        <mxPoint x="652.5590261030839" y="601.2000679991147" as="sourcePoint"/>
                        <mxPoint x="668.5954419820218" y="618.9430089239622" as="targetPoint"/>
                    </mxGeometry>
                </mxCell>
                <mxCell id="fVUmnMzmdv8v57rQySdX-80" value="" style="ellipse;whiteSpace=wrap;html=1;aspect=fixed;fillColor=#67AB9F;strokeWidth=2;strokeColor=#000000;fontStyle=1" parent="1" vertex="1">
                    <mxGeometry x="709.8228820116055" y="547.3407692307692" width="22.678916827852998" height="22.678916827852998" as="geometry"/>
                </mxCell>
                <mxCell id="fVUmnMzmdv8v57rQySdX-81" value="" style="endArrow=none;html=1;rounded=0;startSize=1;endSize=1;strokeColor=#000000;strokeWidth=2;jumpStyle=arc;jumpSize=6;exitX=0;exitY=0;exitDx=0;exitDy=0;entryX=1;entryY=1;entryDx=0;entryDy=0;fontStyle=1" parent="1" source="fVUmnMzmdv8v57rQySdX-80" target="fVUmnMzmdv8v57rQySdX-80" edge="1">
                    <mxGeometry width="50" height="50" relative="1" as="geometry">
                        <mxPoint x="732.5017988394584" y="554.51" as="sourcePoint"/>
                        <mxPoint x="748.7010251450674" y="536.5869230769231" as="targetPoint"/>
                    </mxGeometry>
                </mxCell>
                <mxCell id="fVUmnMzmdv8v57rQySdX-82" value="" style="endArrow=none;html=1;rounded=0;startSize=1;endSize=1;strokeColor=#000000;strokeWidth=2;jumpStyle=none;jumpSize=6;exitX=0;exitY=1;exitDx=0;exitDy=0;entryX=1;entryY=0;entryDx=0;entryDy=0;fontStyle=1" parent="1" source="fVUmnMzmdv8v57rQySdX-80" target="fVUmnMzmdv8v57rQySdX-80" edge="1">
                    <mxGeometry width="50" height="50" relative="1" as="geometry">
                        <mxPoint x="716.3839777471849" y="554.6000679991146" as="sourcePoint"/>
                        <mxPoint x="732.4203936261229" y="572.3430089239621" as="targetPoint"/>
                    </mxGeometry>
                </mxCell>
                <mxCell id="fVUmnMzmdv8v57rQySdX-83" value="" style="ellipse;whiteSpace=wrap;html=1;aspect=fixed;fillColor=#67AB9F;strokeWidth=2;strokeColor=#000000;fontStyle=1" parent="1" vertex="1">
                    <mxGeometry x="709.8228820116055" y="593.9407692307693" width="22.678916827852998" height="22.678916827852998" as="geometry"/>
                </mxCell>
                <mxCell id="fVUmnMzmdv8v57rQySdX-84" value="" style="endArrow=none;html=1;rounded=0;startSize=1;endSize=1;strokeColor=#000000;strokeWidth=2;jumpStyle=arc;jumpSize=6;exitX=0;exitY=0;exitDx=0;exitDy=0;entryX=1;entryY=1;entryDx=0;entryDy=0;fontStyle=1" parent="1" source="fVUmnMzmdv8v57rQySdX-83" target="fVUmnMzmdv8v57rQySdX-83" edge="1">
                    <mxGeometry width="50" height="50" relative="1" as="geometry">
                        <mxPoint x="732.5017988394584" y="601.1099999999999" as="sourcePoint"/>
                        <mxPoint x="748.7010251450674" y="583.186923076923" as="targetPoint"/>
                    </mxGeometry>
                </mxCell>
                <mxCell id="fVUmnMzmdv8v57rQySdX-85" value="" style="endArrow=none;html=1;rounded=0;startSize=1;endSize=1;strokeColor=#000000;strokeWidth=2;jumpStyle=none;jumpSize=6;exitX=0;exitY=1;exitDx=0;exitDy=0;entryX=1;entryY=0;entryDx=0;entryDy=0;fontStyle=1" parent="1" source="fVUmnMzmdv8v57rQySdX-83" target="fVUmnMzmdv8v57rQySdX-83" edge="1">
                    <mxGeometry width="50" height="50" relative="1" as="geometry">
                        <mxPoint x="716.3839777471849" y="601.2000679991147" as="sourcePoint"/>
                        <mxPoint x="732.4203936261229" y="618.9430089239622" as="targetPoint"/>
                    </mxGeometry>
                </mxCell>
                <mxCell id="fVUmnMzmdv8v57rQySdX-86" value="" style="group;fontStyle=1;strokeWidth=2;" parent="1" vertex="1" connectable="0">
                    <mxGeometry x="682.9981044487431" y="575.343076923077" width="12.9593810444876" height="12.959381044487372" as="geometry"/>
                </mxCell>
                <mxCell id="fVUmnMzmdv8v57rQySdX-87" value="" style="ellipse;whiteSpace=wrap;html=1;aspect=fixed;fillColor=#e1d5e7;strokeColor=#000000;strokeWidth=2;fontStyle=1" parent="fVUmnMzmdv8v57rQySdX-86" vertex="1">
                    <mxGeometry width="12.959381044487428" height="12.959381044487428" as="geometry"/>
                </mxCell>
                <mxCell id="fVUmnMzmdv8v57rQySdX-88" value="" style="endArrow=none;html=1;rounded=0;strokeColor=#000000;entryX=0.5;entryY=0;entryDx=0;entryDy=0;exitX=0.5;exitY=1;exitDx=0;exitDy=0;strokeWidth=2;fontStyle=1" parent="fVUmnMzmdv8v57rQySdX-86" source="fVUmnMzmdv8v57rQySdX-87" edge="1">
                    <mxGeometry width="50" height="50" relative="1" as="geometry">
                        <mxPoint x="6.4796905222438" y="14.338461538461615" as="sourcePoint"/>
                        <mxPoint x="6.4796905222438" as="targetPoint"/>
                    </mxGeometry>
                </mxCell>
                <mxCell id="fVUmnMzmdv8v57rQySdX-89" value="" style="endArrow=none;html=1;rounded=0;strokeColor=#000000;entryX=0;entryY=0.5;entryDx=0;entryDy=0;exitX=1;exitY=0.5;exitDx=0;exitDy=0;strokeWidth=2;fontStyle=1" parent="fVUmnMzmdv8v57rQySdX-86" source="fVUmnMzmdv8v57rQySdX-87" target="fVUmnMzmdv8v57rQySdX-87" edge="1">
                    <mxGeometry width="50" height="50" relative="1" as="geometry">
                        <mxPoint x="12.9593810444876" y="7.169230769230808" as="sourcePoint"/>
                        <mxPoint y="7.169230769230808" as="targetPoint"/>
                    </mxGeometry>
                </mxCell>
                <mxCell id="fVUmnMzmdv8v57rQySdX-90" value="" style="group;fontStyle=1;strokeWidth=2;" parent="1" vertex="1" connectable="0">
                    <mxGeometry x="742.9981044487431" y="575.343076923077" width="12.9593810444876" height="12.959381044487372" as="geometry"/>
                </mxCell>
                <mxCell id="fVUmnMzmdv8v57rQySdX-91" value="" style="ellipse;whiteSpace=wrap;html=1;aspect=fixed;fillColor=#e1d5e7;strokeColor=#000000;strokeWidth=2;fontStyle=1" parent="fVUmnMzmdv8v57rQySdX-90" vertex="1">
                    <mxGeometry width="12.959381044487428" height="12.959381044487428" as="geometry"/>
                </mxCell>
                <mxCell id="fVUmnMzmdv8v57rQySdX-92" value="" style="endArrow=none;html=1;rounded=0;strokeColor=#000000;entryX=0.5;entryY=0;entryDx=0;entryDy=0;exitX=0.5;exitY=1;exitDx=0;exitDy=0;strokeWidth=2;fontStyle=1" parent="fVUmnMzmdv8v57rQySdX-90" source="fVUmnMzmdv8v57rQySdX-91" edge="1">
                    <mxGeometry width="50" height="50" relative="1" as="geometry">
                        <mxPoint x="6.4796905222438" y="14.338461538461615" as="sourcePoint"/>
                        <mxPoint x="6.4796905222438" as="targetPoint"/>
                    </mxGeometry>
                </mxCell>
                <mxCell id="fVUmnMzmdv8v57rQySdX-93" value="" style="endArrow=none;html=1;rounded=0;strokeColor=#000000;entryX=0;entryY=0.5;entryDx=0;entryDy=0;exitX=1;exitY=0.5;exitDx=0;exitDy=0;strokeWidth=2;fontStyle=1" parent="fVUmnMzmdv8v57rQySdX-90" source="fVUmnMzmdv8v57rQySdX-91" target="fVUmnMzmdv8v57rQySdX-91" edge="1">
                    <mxGeometry width="50" height="50" relative="1" as="geometry">
                        <mxPoint x="12.9593810444876" y="7.169230769230808" as="sourcePoint"/>
                        <mxPoint y="7.169230769230808" as="targetPoint"/>
                    </mxGeometry>
                </mxCell>
                <mxCell id="fVUmnMzmdv8v57rQySdX-94" style="edgeStyle=orthogonalEdgeStyle;curved=1;orthogonalLoop=1;jettySize=auto;html=1;entryX=0.5;entryY=0;entryDx=0;entryDy=0;fontSize=16;fontColor=#000000;startArrow=none;startFill=0;endArrow=classic;endFill=1;endSize=5;strokeColor=#000000;strokeWidth=6;" parent="1" target="fVUmnMzmdv8v57rQySdX-172" edge="1">
                    <mxGeometry relative="1" as="geometry">
                        <mxPoint x="515.8199999999997" y="730" as="sourcePoint"/>
                    </mxGeometry>
                </mxCell>
                <mxCell id="fVUmnMzmdv8v57rQySdX-95" value="" style="shape=cube;whiteSpace=wrap;html=1;boundedLbl=1;backgroundOutline=1;darkOpacity=0.05;darkOpacity2=0.1;sketch=0;fontSize=18;strokeColor=default;fillColor=#FFD966;size=10;fontStyle=1;strokeWidth=2;" parent="1" vertex="1">
                    <mxGeometry x="413.97000000000025" y="1028.0500000000002" width="40" height="40" as="geometry"/>
                </mxCell>
                <mxCell id="fVUmnMzmdv8v57rQySdX-96" value="" style="rounded=0;whiteSpace=wrap;html=1;fontSize=24;fontColor=#990000;fillColor=#FFD966;fontStyle=1;strokeWidth=2;" parent="1" vertex="1">
                    <mxGeometry x="423.97000000000025" y="1038.0500000000002" width="10" height="10" as="geometry"/>
                </mxCell>
                <mxCell id="fVUmnMzmdv8v57rQySdX-97" value="" style="rounded=0;whiteSpace=wrap;html=1;fontSize=24;fontColor=#990000;fillColor=#FFD966;fontStyle=1;strokeWidth=2;" parent="1" vertex="1">
                    <mxGeometry x="433.97000000000025" y="1038.0500000000002" width="10" height="10" as="geometry"/>
                </mxCell>
                <mxCell id="fVUmnMzmdv8v57rQySdX-98" value="" style="rounded=0;whiteSpace=wrap;html=1;fontSize=24;fontColor=#990000;fillColor=#FFD966;fontStyle=1;strokeWidth=2;" parent="1" vertex="1">
                    <mxGeometry x="443.97000000000025" y="1038.0500000000002" width="10" height="10" as="geometry"/>
                </mxCell>
                <mxCell id="fVUmnMzmdv8v57rQySdX-99" value="" style="rounded=0;whiteSpace=wrap;html=1;fontSize=24;fontColor=#990000;fillColor=#FFD966;fontStyle=1;strokeWidth=2;" parent="1" vertex="1">
                    <mxGeometry x="423.97000000000025" y="1048.0500000000002" width="10" height="10" as="geometry"/>
                </mxCell>
                <mxCell id="fVUmnMzmdv8v57rQySdX-100" value="" style="rounded=0;whiteSpace=wrap;html=1;fontSize=24;fontColor=#990000;fillColor=#FFD966;fontStyle=1;strokeWidth=2;" parent="1" vertex="1">
                    <mxGeometry x="433.97000000000025" y="1048.0500000000002" width="10" height="10" as="geometry"/>
                </mxCell>
                <mxCell id="fVUmnMzmdv8v57rQySdX-101" value="" style="rounded=0;whiteSpace=wrap;html=1;fontSize=24;fontColor=#990000;fillColor=#FFD966;fontStyle=1;strokeWidth=2;" parent="1" vertex="1">
                    <mxGeometry x="443.97000000000025" y="1048.0500000000002" width="10" height="10" as="geometry"/>
                </mxCell>
                <mxCell id="fVUmnMzmdv8v57rQySdX-102" value="" style="rounded=0;whiteSpace=wrap;html=1;fontSize=24;fontColor=#990000;fillColor=#FFD966;fontStyle=1;strokeWidth=2;" parent="1" vertex="1">
                    <mxGeometry x="433.97000000000025" y="1058.0500000000002" width="10" height="10" as="geometry"/>
                </mxCell>
                <mxCell id="fVUmnMzmdv8v57rQySdX-103" value="" style="rounded=0;whiteSpace=wrap;html=1;fontSize=24;fontColor=#990000;fillColor=#FFD966;fontStyle=1;strokeWidth=2;" parent="1" vertex="1">
                    <mxGeometry x="443.97000000000025" y="1058.0500000000002" width="10" height="10" as="geometry"/>
                </mxCell>
                <mxCell id="fVUmnMzmdv8v57rQySdX-104" value="" style="rounded=0;whiteSpace=wrap;html=1;fontSize=24;fontColor=#990000;fillColor=#FFD966;fontStyle=1;strokeWidth=2;" parent="1" vertex="1">
                    <mxGeometry x="423.97000000000025" y="1058.0500000000002" width="10" height="10" as="geometry"/>
                </mxCell>
                <mxCell id="fVUmnMzmdv8v57rQySdX-105" value="" style="shape=curlyBracket;whiteSpace=wrap;html=1;rounded=1;flipH=1;fontSize=24;fontColor=#990000;fillColor=#67AB9F;rotation=140;fontStyle=1;strokeWidth=2;" parent="1" vertex="1">
                    <mxGeometry x="404.22000000000025" y="1060.27" width="10" height="15.52" as="geometry"/>
                </mxCell>
                <mxCell id="fVUmnMzmdv8v57rQySdX-106" value="" style="line;strokeWidth=2;direction=south;html=1;perimeter=backbonePerimeter;points=[];outlineConnect=0;fontSize=24;fontColor=#990000;fillColor=#67AB9F;rotation=90;fontStyle=1" parent="1" vertex="1">
                    <mxGeometry x="428.97000000000025" y="1018.0500000000002" width="10" height="30" as="geometry"/>
                </mxCell>
                <mxCell id="fVUmnMzmdv8v57rQySdX-107" value="" style="line;strokeWidth=2;direction=south;html=1;perimeter=backbonePerimeter;points=[];outlineConnect=0;fontSize=24;fontColor=#990000;fillColor=#67AB9F;rotation=-45;fontStyle=1" parent="1" vertex="1">
                    <mxGeometry x="424.5800000000004" y="1026.0100000000002" width="10" height="14.31" as="geometry"/>
                </mxCell>
                <mxCell id="fVUmnMzmdv8v57rQySdX-108" value="" style="line;strokeWidth=2;direction=south;html=1;perimeter=backbonePerimeter;points=[];outlineConnect=0;fontSize=24;fontColor=#990000;fillColor=#67AB9F;rotation=-45;fontStyle=1" parent="1" vertex="1">
                    <mxGeometry x="433.9100000000003" y="1026.0100000000002" width="10" height="14.31" as="geometry"/>
                </mxCell>
                <mxCell id="fVUmnMzmdv8v57rQySdX-109" value="" style="line;strokeWidth=2;direction=south;html=1;perimeter=backbonePerimeter;points=[];outlineConnect=0;fontSize=24;fontColor=#990000;fillColor=#67AB9F;rotation=-45;fontStyle=1" parent="1" vertex="1">
                    <mxGeometry x="413.9200000000001" y="1036" width="10" height="14.27" as="geometry"/>
                </mxCell>
                <mxCell id="fVUmnMzmdv8v57rQySdX-110" value="" style="line;strokeWidth=2;direction=south;html=1;perimeter=backbonePerimeter;points=[];outlineConnect=0;fontSize=24;fontColor=#990000;fillColor=#67AB9F;rotation=-45;fontStyle=1" parent="1" vertex="1">
                    <mxGeometry x="413.9200000000001" y="1046" width="10" height="14.27" as="geometry"/>
                </mxCell>
                <mxCell id="fVUmnMzmdv8v57rQySdX-111" value="" style="line;strokeWidth=2;direction=south;html=1;perimeter=backbonePerimeter;points=[];outlineConnect=0;fontSize=24;fontColor=#990000;fillColor=#67AB9F;rotation=0;fontStyle=1" parent="1" vertex="1">
                    <mxGeometry x="413.9200000000001" y="1033.0500000000002" width="10" height="30" as="geometry"/>
                </mxCell>
                <mxCell id="fVUmnMzmdv8v57rQySdX-112" value="" style="shape=cube;whiteSpace=wrap;html=1;boundedLbl=1;backgroundOutline=1;darkOpacity=0.05;darkOpacity2=0.1;sketch=0;fontSize=18;strokeColor=default;fillColor=#990000;size=10;fontStyle=1;strokeWidth=2;" parent="1" vertex="1">
                    <mxGeometry x="530.2700000000004" y="1035" width="40" height="40" as="geometry"/>
                </mxCell>
                <mxCell id="fVUmnMzmdv8v57rQySdX-113" value="" style="rounded=0;whiteSpace=wrap;html=1;fontSize=24;fontColor=#990000;fillColor=#990000;fontStyle=1;strokeWidth=2;" parent="1" vertex="1">
                    <mxGeometry x="540.2700000000004" y="1045" width="10" height="10" as="geometry"/>
                </mxCell>
                <mxCell id="fVUmnMzmdv8v57rQySdX-114" value="" style="rounded=0;whiteSpace=wrap;html=1;fontSize=24;fontColor=#990000;fillColor=#990000;fontStyle=1;strokeWidth=2;" parent="1" vertex="1">
                    <mxGeometry x="550.2700000000004" y="1045" width="10" height="10" as="geometry"/>
                </mxCell>
                <mxCell id="fVUmnMzmdv8v57rQySdX-115" value="" style="rounded=0;whiteSpace=wrap;html=1;fontSize=24;fontColor=#990000;fillColor=#990000;fontStyle=1;strokeWidth=2;" parent="1" vertex="1">
                    <mxGeometry x="560.2700000000004" y="1045" width="10" height="10" as="geometry"/>
                </mxCell>
                <mxCell id="fVUmnMzmdv8v57rQySdX-116" value="" style="rounded=0;whiteSpace=wrap;html=1;fontSize=24;fontColor=#990000;fillColor=#990000;fontStyle=1;strokeWidth=2;" parent="1" vertex="1">
                    <mxGeometry x="540.2700000000004" y="1055" width="10" height="10" as="geometry"/>
                </mxCell>
                <mxCell id="fVUmnMzmdv8v57rQySdX-117" value="" style="rounded=0;whiteSpace=wrap;html=1;fontSize=24;fontColor=#990000;fillColor=#990000;fontStyle=1;strokeWidth=2;" parent="1" vertex="1">
                    <mxGeometry x="550.2700000000004" y="1055" width="10" height="10" as="geometry"/>
                </mxCell>
                <mxCell id="fVUmnMzmdv8v57rQySdX-118" value="" style="rounded=0;whiteSpace=wrap;html=1;fontSize=24;fontColor=#990000;fillColor=#990000;fontStyle=1;strokeWidth=2;" parent="1" vertex="1">
                    <mxGeometry x="560.2700000000004" y="1055" width="10" height="10" as="geometry"/>
                </mxCell>
                <mxCell id="fVUmnMzmdv8v57rQySdX-119" value="" style="rounded=0;whiteSpace=wrap;html=1;fontSize=24;fontColor=#990000;fillColor=#990000;fontStyle=1;strokeWidth=2;" parent="1" vertex="1">
                    <mxGeometry x="550.2700000000004" y="1065" width="10" height="10" as="geometry"/>
                </mxCell>
                <mxCell id="fVUmnMzmdv8v57rQySdX-120" value="" style="rounded=0;whiteSpace=wrap;html=1;fontSize=24;fontColor=#990000;fillColor=#990000;fontStyle=1;strokeWidth=2;" parent="1" vertex="1">
                    <mxGeometry x="560.2700000000004" y="1065" width="10" height="10" as="geometry"/>
                </mxCell>
                <mxCell id="fVUmnMzmdv8v57rQySdX-121" value="" style="rounded=0;whiteSpace=wrap;html=1;fontSize=24;fontColor=#990000;fillColor=#990000;fontStyle=1;strokeWidth=2;" parent="1" vertex="1">
                    <mxGeometry x="540.2700000000004" y="1065" width="10" height="10" as="geometry"/>
                </mxCell>
                <mxCell id="fVUmnMzmdv8v57rQySdX-122" value="" style="line;strokeWidth=2;direction=south;html=1;perimeter=backbonePerimeter;points=[];outlineConnect=0;fontSize=24;fontColor=#990000;fillColor=#67AB9F;rotation=90;fontStyle=1" parent="1" vertex="1">
                    <mxGeometry x="545.2700000000004" y="1025" width="10" height="30" as="geometry"/>
                </mxCell>
                <mxCell id="fVUmnMzmdv8v57rQySdX-123" value="" style="line;strokeWidth=2;direction=south;html=1;perimeter=backbonePerimeter;points=[];outlineConnect=0;fontSize=24;fontColor=#990000;fillColor=#67AB9F;rotation=-45;fontStyle=1" parent="1" vertex="1">
                    <mxGeometry x="540.8800000000006" y="1032.96" width="10" height="14.31" as="geometry"/>
                </mxCell>
                <mxCell id="fVUmnMzmdv8v57rQySdX-124" value="" style="line;strokeWidth=2;direction=south;html=1;perimeter=backbonePerimeter;points=[];outlineConnect=0;fontSize=24;fontColor=#990000;fillColor=#67AB9F;rotation=-45;fontStyle=1" parent="1" vertex="1">
                    <mxGeometry x="550.2100000000005" y="1032.96" width="10" height="14.31" as="geometry"/>
                </mxCell>
                <mxCell id="fVUmnMzmdv8v57rQySdX-125" value="" style="line;strokeWidth=2;direction=south;html=1;perimeter=backbonePerimeter;points=[];outlineConnect=0;fontSize=24;fontColor=#990000;fillColor=#67AB9F;rotation=-45;fontStyle=1" parent="1" vertex="1">
                    <mxGeometry x="530.2200000000003" y="1042.9500000000003" width="10" height="14.27" as="geometry"/>
                </mxCell>
                <mxCell id="fVUmnMzmdv8v57rQySdX-126" value="" style="line;strokeWidth=2;direction=south;html=1;perimeter=backbonePerimeter;points=[];outlineConnect=0;fontSize=24;fontColor=#990000;fillColor=#67AB9F;rotation=-45;fontStyle=1" parent="1" vertex="1">
                    <mxGeometry x="530.2200000000003" y="1052.9500000000003" width="10" height="14.27" as="geometry"/>
                </mxCell>
                <mxCell id="fVUmnMzmdv8v57rQySdX-127" value="" style="line;strokeWidth=2;direction=south;html=1;perimeter=backbonePerimeter;points=[];outlineConnect=0;fontSize=24;fontColor=#990000;fillColor=#67AB9F;rotation=0;fontStyle=1" parent="1" vertex="1">
                    <mxGeometry x="530.2200000000003" y="1040" width="10" height="30" as="geometry"/>
                </mxCell>
                <mxCell id="fVUmnMzmdv8v57rQySdX-128" value="" style="shape=cube;whiteSpace=wrap;html=1;boundedLbl=1;backgroundOutline=1;darkOpacity=0.05;darkOpacity2=0.1;sketch=0;fontSize=18;strokeColor=default;fillColor=#67AB9F;size=10;fontStyle=1;strokeWidth=2;" parent="1" vertex="1">
                    <mxGeometry x="588.2700000000004" y="1035.79" width="40" height="40" as="geometry"/>
                </mxCell>
                <mxCell id="fVUmnMzmdv8v57rQySdX-129" value="" style="rounded=0;whiteSpace=wrap;html=1;fontSize=24;fontColor=#990000;fillColor=#67AB9F;fontStyle=1;strokeWidth=2;" parent="1" vertex="1">
                    <mxGeometry x="598.2700000000004" y="1045.79" width="10" height="10" as="geometry"/>
                </mxCell>
                <mxCell id="fVUmnMzmdv8v57rQySdX-130" value="" style="rounded=0;whiteSpace=wrap;html=1;fontSize=24;fontColor=#990000;fillColor=#67AB9F;fontStyle=1;strokeWidth=2;" parent="1" vertex="1">
                    <mxGeometry x="608.2700000000004" y="1045.79" width="10" height="10" as="geometry"/>
                </mxCell>
                <mxCell id="fVUmnMzmdv8v57rQySdX-131" value="" style="rounded=0;whiteSpace=wrap;html=1;fontSize=24;fontColor=#990000;fillColor=#67AB9F;fontStyle=1;strokeWidth=2;" parent="1" vertex="1">
                    <mxGeometry x="618.2700000000004" y="1045.79" width="10" height="10" as="geometry"/>
                </mxCell>
                <mxCell id="fVUmnMzmdv8v57rQySdX-132" value="" style="rounded=0;whiteSpace=wrap;html=1;fontSize=24;fontColor=#990000;fillColor=#67AB9F;fontStyle=1;strokeWidth=2;" parent="1" vertex="1">
                    <mxGeometry x="598.2700000000004" y="1055.79" width="10" height="10" as="geometry"/>
                </mxCell>
                <mxCell id="fVUmnMzmdv8v57rQySdX-133" value="" style="rounded=0;whiteSpace=wrap;html=1;fontSize=24;fontColor=#990000;fillColor=#67AB9F;fontStyle=1;strokeWidth=2;" parent="1" vertex="1">
                    <mxGeometry x="608.2700000000004" y="1055.79" width="10" height="10" as="geometry"/>
                </mxCell>
                <mxCell id="fVUmnMzmdv8v57rQySdX-134" value="" style="rounded=0;whiteSpace=wrap;html=1;fontSize=24;fontColor=#990000;fillColor=#67AB9F;fontStyle=1;strokeWidth=2;" parent="1" vertex="1">
                    <mxGeometry x="618.2700000000004" y="1055.79" width="10" height="10" as="geometry"/>
                </mxCell>
                <mxCell id="fVUmnMzmdv8v57rQySdX-135" value="" style="rounded=0;whiteSpace=wrap;html=1;fontSize=24;fontColor=#990000;fillColor=#67AB9F;fontStyle=1;strokeWidth=2;" parent="1" vertex="1">
                    <mxGeometry x="608.2700000000004" y="1065.79" width="10" height="10" as="geometry"/>
                </mxCell>
                <mxCell id="fVUmnMzmdv8v57rQySdX-136" value="" style="rounded=0;whiteSpace=wrap;html=1;fontSize=24;fontColor=#990000;fillColor=#67AB9F;fontStyle=1;strokeWidth=2;" parent="1" vertex="1">
                    <mxGeometry x="618.2700000000004" y="1065.79" width="10" height="10" as="geometry"/>
                </mxCell>
                <mxCell id="fVUmnMzmdv8v57rQySdX-137" value="" style="rounded=0;whiteSpace=wrap;html=1;fontSize=24;fontColor=#990000;fillColor=#67AB9F;fontStyle=1;strokeWidth=2;" parent="1" vertex="1">
                    <mxGeometry x="598.2700000000004" y="1065.79" width="10" height="10" as="geometry"/>
                </mxCell>
                <mxCell id="fVUmnMzmdv8v57rQySdX-138" value="" style="line;strokeWidth=2;direction=south;html=1;perimeter=backbonePerimeter;points=[];outlineConnect=0;fontSize=24;fontColor=#990000;fillColor=#67AB9F;rotation=90;fontStyle=1" parent="1" vertex="1">
                    <mxGeometry x="603.2700000000004" y="1025.79" width="10" height="30" as="geometry"/>
                </mxCell>
                <mxCell id="fVUmnMzmdv8v57rQySdX-139" value="" style="line;strokeWidth=2;direction=south;html=1;perimeter=backbonePerimeter;points=[];outlineConnect=0;fontSize=24;fontColor=#990000;fillColor=#67AB9F;rotation=-45;fontStyle=1" parent="1" vertex="1">
                    <mxGeometry x="588.2200000000003" y="1043.7400000000002" width="10" height="14.27" as="geometry"/>
                </mxCell>
                <mxCell id="fVUmnMzmdv8v57rQySdX-140" value="" style="line;strokeWidth=2;direction=south;html=1;perimeter=backbonePerimeter;points=[];outlineConnect=0;fontSize=24;fontColor=#990000;fillColor=#67AB9F;rotation=-45;fontStyle=1" parent="1" vertex="1">
                    <mxGeometry x="588.2200000000003" y="1053.7400000000002" width="10" height="14.27" as="geometry"/>
                </mxCell>
                <mxCell id="fVUmnMzmdv8v57rQySdX-141" value="" style="line;strokeWidth=2;direction=south;html=1;perimeter=backbonePerimeter;points=[];outlineConnect=0;fontSize=24;fontColor=#990000;fillColor=#67AB9F;rotation=0;fontStyle=1" parent="1" vertex="1">
                    <mxGeometry x="588.2200000000003" y="1040.79" width="10" height="30" as="geometry"/>
                </mxCell>
                <mxCell id="fVUmnMzmdv8v57rQySdX-142" value="" style="line;strokeWidth=2;direction=south;html=1;perimeter=backbonePerimeter;points=[];outlineConnect=0;fontSize=24;fontColor=#990000;fillColor=#67AB9F;rotation=-45;fontStyle=1" parent="1" vertex="1">
                    <mxGeometry x="598.6000000000004" y="1033.64" width="10" height="14.31" as="geometry"/>
                </mxCell>
                <mxCell id="fVUmnMzmdv8v57rQySdX-143" value="" style="line;strokeWidth=2;direction=south;html=1;perimeter=backbonePerimeter;points=[];outlineConnect=0;fontSize=24;fontColor=#990000;fillColor=#67AB9F;rotation=-45;fontStyle=1" parent="1" vertex="1">
                    <mxGeometry x="607.9300000000003" y="1033.64" width="10" height="14.31" as="geometry"/>
                </mxCell>
                <mxCell id="fVUmnMzmdv8v57rQySdX-144" value="" style="shape=cube;whiteSpace=wrap;html=1;boundedLbl=1;backgroundOutline=1;darkOpacity=0.05;darkOpacity2=0.1;sketch=0;fontSize=18;strokeColor=default;fillColor=#FFB570;size=10;fontStyle=1;strokeWidth=2;" parent="1" vertex="1">
                    <mxGeometry x="649.2200000000007" y="1035.79" width="40" height="40" as="geometry"/>
                </mxCell>
                <mxCell id="fVUmnMzmdv8v57rQySdX-145" value="" style="line;strokeWidth=2;direction=south;html=1;perimeter=backbonePerimeter;points=[];outlineConnect=0;fontSize=24;fontColor=#990000;fillColor=#67AB9F;rotation=90;fontStyle=1" parent="1" vertex="1">
                    <mxGeometry x="664.2200000000007" y="1025.79" width="10" height="30" as="geometry"/>
                </mxCell>
                <mxCell id="fVUmnMzmdv8v57rQySdX-146" value="" style="line;strokeWidth=2;direction=south;html=1;perimeter=backbonePerimeter;points=[];outlineConnect=0;fontSize=24;fontColor=#990000;fillColor=#67AB9F;rotation=-45;fontStyle=1" parent="1" vertex="1">
                    <mxGeometry x="649.7800000000007" y="1054.65" width="10" height="14.27" as="geometry"/>
                </mxCell>
                <mxCell id="fVUmnMzmdv8v57rQySdX-147" value="" style="line;strokeWidth=2;direction=south;html=1;perimeter=backbonePerimeter;points=[];outlineConnect=0;fontSize=24;fontColor=#990000;fillColor=#67AB9F;rotation=0;fontStyle=1" parent="1" vertex="1">
                    <mxGeometry x="649.5500000000006" y="1040.79" width="10" height="30" as="geometry"/>
                </mxCell>
                <mxCell id="fVUmnMzmdv8v57rQySdX-148" value="" style="line;strokeWidth=2;direction=south;html=1;perimeter=backbonePerimeter;points=[];outlineConnect=0;fontSize=24;fontColor=#990000;fillColor=#67AB9F;rotation=-45;fontStyle=1" parent="1" vertex="1">
                    <mxGeometry x="658.8100000000009" y="1033.63" width="10" height="14.31" as="geometry"/>
                </mxCell>
                <mxCell id="fVUmnMzmdv8v57rQySdX-149" value="" style="line;strokeWidth=2;direction=south;html=1;perimeter=backbonePerimeter;points=[];outlineConnect=0;fontSize=24;fontColor=#990000;fillColor=#67AB9F;rotation=-45;fontStyle=1" parent="1" vertex="1">
                    <mxGeometry x="669.7800000000007" y="1033.64" width="10" height="14.31" as="geometry"/>
                </mxCell>
                <mxCell id="fVUmnMzmdv8v57rQySdX-150" value="" style="shape=curlyBracket;whiteSpace=wrap;html=1;rounded=1;flipH=1;fontSize=24;fontColor=#990000;fillColor=#67AB9F;rotation=0;fontStyle=1;strokeWidth=2;" parent="1" vertex="1">
                    <mxGeometry x="463.97000000000025" y="1041.88" width="10" height="22.52" as="geometry"/>
                </mxCell>
                <mxCell id="fVUmnMzmdv8v57rQySdX-151" value="" style="shape=curlyBracket;whiteSpace=wrap;html=1;rounded=1;flipH=1;fontSize=24;fontColor=#990000;fillColor=#67AB9F;rotation=90;fontStyle=1;strokeWidth=2;" parent="1" vertex="1">
                    <mxGeometry x="433.9100000000003" y="1058.0500000000002" width="10" height="35.87" as="geometry"/>
                </mxCell>
                <mxCell id="fVUmnMzmdv8v57rQySdX-152" value="&lt;font color=&quot;#000000&quot; style=&quot;font-size: 12px&quot;&gt;KY=3&lt;/font&gt;" style="text;html=1;align=center;verticalAlign=middle;resizable=0;points=[];autosize=1;strokeColor=none;fillColor=none;fontSize=24;fontColor=#990000;fontStyle=1;strokeWidth=2;" parent="1" vertex="1">
                    <mxGeometry x="467.97000000000025" y="1029.0500000000002" width="42" height="38" as="geometry"/>
                </mxCell>
                <mxCell id="fVUmnMzmdv8v57rQySdX-153" value="&lt;font color=&quot;#000000&quot; style=&quot;font-size: 12px&quot;&gt;KX=3&lt;/font&gt;" style="text;html=1;align=center;verticalAlign=middle;resizable=0;points=[];autosize=1;strokeColor=none;fillColor=none;fontSize=24;fontColor=#990000;fontStyle=1;strokeWidth=2;" parent="1" vertex="1">
                    <mxGeometry x="417.9100000000003" y="1064.0500000000002" width="42" height="38" as="geometry"/>
                </mxCell>
                <mxCell id="fVUmnMzmdv8v57rQySdX-154" value="&lt;font color=&quot;#000000&quot; style=&quot;font-size: 12px&quot;&gt;C=2&lt;/font&gt;" style="text;html=1;align=center;verticalAlign=middle;resizable=0;points=[];autosize=1;strokeColor=none;fillColor=none;fontSize=24;fontColor=#990000;fontStyle=1;strokeWidth=2;" parent="1" vertex="1">
                    <mxGeometry x="378.22000000000025" y="1054.92" width="33" height="38" as="geometry"/>
                </mxCell>
                <mxCell id="fVUmnMzmdv8v57rQySdX-155" value="" style="rounded=0;whiteSpace=wrap;html=1;fontSize=24;fontColor=#990000;fillColor=#FFB570;fontStyle=1;strokeWidth=2;" parent="1" vertex="1">
                    <mxGeometry x="659.3200000000011" y="1045.79" width="10" height="10" as="geometry"/>
                </mxCell>
                <mxCell id="fVUmnMzmdv8v57rQySdX-156" value="" style="rounded=0;whiteSpace=wrap;html=1;fontSize=24;fontColor=#990000;fillColor=#FFB570;fontStyle=1;strokeWidth=2;" parent="1" vertex="1">
                    <mxGeometry x="669.3200000000011" y="1045.79" width="10" height="10" as="geometry"/>
                </mxCell>
                <mxCell id="fVUmnMzmdv8v57rQySdX-157" value="" style="rounded=0;whiteSpace=wrap;html=1;fontSize=24;fontColor=#990000;fillColor=#FFB570;fontStyle=1;strokeWidth=2;" parent="1" vertex="1">
                    <mxGeometry x="679.3200000000011" y="1045.79" width="10" height="10" as="geometry"/>
                </mxCell>
                <mxCell id="fVUmnMzmdv8v57rQySdX-158" value="" style="rounded=0;whiteSpace=wrap;html=1;fontSize=24;fontColor=#990000;fillColor=#FFB570;fontStyle=1;strokeWidth=2;" parent="1" vertex="1">
                    <mxGeometry x="659.3200000000011" y="1055.79" width="10" height="10" as="geometry"/>
                </mxCell>
                <mxCell id="fVUmnMzmdv8v57rQySdX-159" value="" style="rounded=0;whiteSpace=wrap;html=1;fontSize=24;fontColor=#990000;fillColor=#FFB570;fontStyle=1;strokeWidth=2;" parent="1" vertex="1">
                    <mxGeometry x="669.3200000000011" y="1055.79" width="10" height="10" as="geometry"/>
                </mxCell>
                <mxCell id="fVUmnMzmdv8v57rQySdX-160" value="" style="rounded=0;whiteSpace=wrap;html=1;fontSize=24;fontColor=#990000;fillColor=#FFB570;fontStyle=1;strokeWidth=2;" parent="1" vertex="1">
                    <mxGeometry x="679.3200000000011" y="1055.79" width="10" height="10" as="geometry"/>
                </mxCell>
                <mxCell id="fVUmnMzmdv8v57rQySdX-161" value="" style="rounded=0;whiteSpace=wrap;html=1;fontSize=24;fontColor=#990000;fillColor=#FFB570;fontStyle=1;strokeWidth=2;" parent="1" vertex="1">
                    <mxGeometry x="669.3200000000011" y="1065.79" width="10" height="10" as="geometry"/>
                </mxCell>
                <mxCell id="fVUmnMzmdv8v57rQySdX-162" value="" style="rounded=0;whiteSpace=wrap;html=1;fontSize=24;fontColor=#990000;fillColor=#FFB570;fontStyle=1;strokeWidth=2;" parent="1" vertex="1">
                    <mxGeometry x="679.3200000000011" y="1065.79" width="10" height="10" as="geometry"/>
                </mxCell>
                <mxCell id="fVUmnMzmdv8v57rQySdX-163" value="" style="rounded=0;whiteSpace=wrap;html=1;fontSize=24;fontColor=#990000;fillColor=#FFB570;fontStyle=1;strokeWidth=2;" parent="1" vertex="1">
                    <mxGeometry x="659.3200000000011" y="1065.79" width="10" height="10" as="geometry"/>
                </mxCell>
                <mxCell id="fVUmnMzmdv8v57rQySdX-164" value="" style="line;strokeWidth=2;direction=south;html=1;perimeter=backbonePerimeter;points=[];outlineConnect=0;fontSize=24;fontColor=#990000;fillColor=#67AB9F;rotation=-45;fontStyle=1" parent="1" vertex="1">
                    <mxGeometry x="649.7800000000007" y="1043.65" width="10" height="14.27" as="geometry"/>
                </mxCell>
                <mxCell id="fVUmnMzmdv8v57rQySdX-165" value="" style="shape=curlyBracket;whiteSpace=wrap;html=1;rounded=1;flipH=1;fontSize=24;fontColor=#990000;fillColor=#67AB9F;rotation=-90;fontStyle=1;strokeWidth=2;" parent="1" vertex="1">
                    <mxGeometry x="548.2200000000003" y="870" width="10" height="293" as="geometry"/>
                </mxCell>
                <mxCell id="fVUmnMzmdv8v57rQySdX-166" value="&lt;font color=&quot;#000000&quot; style=&quot;font-size: 12px&quot;&gt;F=4&lt;/font&gt;" style="text;html=1;align=center;verticalAlign=middle;resizable=0;points=[];autosize=1;strokeColor=none;fillColor=none;fontSize=24;fontColor=#990000;fontStyle=1;strokeWidth=2;" parent="1" vertex="1">
                    <mxGeometry x="537.2200000000003" y="976" width="32" height="38" as="geometry"/>
                </mxCell>
                <mxCell id="fVUmnMzmdv8v57rQySdX-167" value="" style="endArrow=classic;html=1;rounded=0;fontSize=12;strokeWidth=2;entryX=0.5;entryY=0;entryDx=0;entryDy=0;" parent="1" target="fVUmnMzmdv8v57rQySdX-184" edge="1">
                    <mxGeometry width="50" height="50" relative="1" as="geometry">
                        <mxPoint x="515.2700000000004" y="1103.92" as="sourcePoint"/>
                        <mxPoint x="515.2200000000003" y="1181.4900000000002" as="targetPoint"/>
                        <Array as="points">
                            <mxPoint x="515.2200000000003" y="1151.49"/>
                        </Array>
                    </mxGeometry>
                </mxCell>
                <mxCell id="fVUmnMzmdv8v57rQySdX-168" value="" style="endArrow=classic;html=1;rounded=0;fontSize=12;strokeWidth=2;entryX=0.5;entryY=0;entryDx=0;entryDy=0;" parent="1" target="fVUmnMzmdv8v57rQySdX-186" edge="1">
                    <mxGeometry width="50" height="50" relative="1" as="geometry">
                        <mxPoint x="515.3199999999997" y="1276.2199999999984" as="sourcePoint"/>
                        <mxPoint x="515.2700000000009" y="1353.79" as="targetPoint"/>
                        <Array as="points">
                            <mxPoint x="515.2700000000004" y="1323.79"/>
                        </Array>
                    </mxGeometry>
                </mxCell>
                <mxCell id="fVUmnMzmdv8v57rQySdX-169" value="" style="shape=ext;double=1;rounded=0;whiteSpace=wrap;html=1;fontSize=12;strokeWidth=2;strokeColor=none;" parent="1" vertex="1">
                    <mxGeometry x="-97.79999999999993" y="1598.29" width="20" height="10" as="geometry"/>
                </mxCell>
                <mxCell id="fVUmnMzmdv8v57rQySdX-170" value="Layer Weights" style="text;html=1;strokeColor=none;fillColor=none;align=right;verticalAlign=middle;whiteSpace=wrap;rounded=0;fontSize=12;fontStyle=1" parent="1" vertex="1">
                    <mxGeometry x="297.22000000000025" y="1033.63" width="60" height="30" as="geometry"/>
                </mxCell>
                <mxCell id="fVUmnMzmdv8v57rQySdX-171" style="edgeStyle=orthogonalEdgeStyle;curved=1;orthogonalLoop=1;jettySize=auto;html=1;fontSize=16;fontColor=#000000;startArrow=none;startFill=0;endArrow=classic;endFill=1;endSize=5;strokeColor=#000000;strokeWidth=6;" parent="1" source="fVUmnMzmdv8v57rQySdX-172" target="fVUmnMzmdv8v57rQySdX-10" edge="1">
                    <mxGeometry relative="1" as="geometry"/>
                </mxCell>
                <mxCell id="fVUmnMzmdv8v57rQySdX-172" value="Select Layer" style="rounded=1;whiteSpace=wrap;html=1;fontSize=35;strokeColor=#b85450;strokeWidth=4;fillColor=#f8cecc;glass=0;shadow=0;sketch=0;fontStyle=1" parent="1" vertex="1">
                    <mxGeometry x="432.07" y="800" width="167.5" height="90" as="geometry"/>
                </mxCell>
                <mxCell id="fVUmnMzmdv8v57rQySdX-173" value="Weigh low utilization by cycles spent evaluating OFMAP" style="rounded=1;whiteSpace=wrap;html=1;fontSize=27;strokeColor=#b85450;strokeWidth=4;fillColor=#f8cecc;glass=0;shadow=0;sketch=0;fontStyle=1" parent="1" vertex="1">
                    <mxGeometry x="412.68" y="1500" width="204.52" height="170" as="geometry"/>
                </mxCell>
                <mxCell id="fVUmnMzmdv8v57rQySdX-174" value="" style="edgeStyle=orthogonalEdgeStyle;curved=1;orthogonalLoop=1;jettySize=auto;html=1;fontSize=16;fontColor=#000000;startArrow=none;startFill=0;endArrow=classic;endFill=1;endSize=5;strokeColor=#000000;strokeWidth=6;" parent="1" source="fVUmnMzmdv8v57rQySdX-175" target="fVUmnMzmdv8v57rQySdX-178" edge="1">
                    <mxGeometry relative="1" as="geometry"/>
                </mxCell>
                <mxCell id="fVUmnMzmdv8v57rQySdX-175" value="Get avg utilization of model" style="rounded=1;whiteSpace=wrap;html=1;fontSize=35;strokeColor=#b85450;strokeWidth=4;fillColor=#f8cecc;glass=0;shadow=0;sketch=0;fontStyle=1" parent="1" vertex="1">
                    <mxGeometry x="425.03000000000003" y="1780" width="181.59" height="150" as="geometry"/>
                </mxCell>
                <mxCell id="fVUmnMzmdv8v57rQySdX-176" style="edgeStyle=orthogonalEdgeStyle;orthogonalLoop=1;jettySize=auto;html=1;entryX=0;entryY=0.5;entryDx=0;entryDy=0;fontSize=16;fontColor=#000000;startArrow=none;startFill=0;endArrow=classic;endFill=1;endSize=5;strokeColor=#000000;strokeWidth=6;exitX=0;exitY=0.5;exitDx=0;exitDy=0;rounded=1;" parent="1" source="fVUmnMzmdv8v57rQySdX-178" target="fVUmnMzmdv8v57rQySdX-172" edge="1">
                    <mxGeometry relative="1" as="geometry">
                        <Array as="points">
                            <mxPoint x="139.95" y="2085"/>
                            <mxPoint x="139.95" y="845"/>
                        </Array>
                        <mxPoint x="427.3199999999999" y="674.9999999999998" as="targetPoint"/>
                    </mxGeometry>
                </mxCell>
                <mxCell id="fVUmnMzmdv8v57rQySdX-177" style="edgeStyle=orthogonalEdgeStyle;curved=1;orthogonalLoop=1;jettySize=auto;html=1;entryX=0.5;entryY=0;entryDx=0;entryDy=0;fontSize=35;fontColor=#000000;startArrow=none;startFill=0;endArrow=classic;endFill=1;endSize=5;strokeColor=#000000;strokeWidth=6;" parent="1" source="fVUmnMzmdv8v57rQySdX-178" target="fVUmnMzmdv8v57rQySdX-182" edge="1">
                    <mxGeometry relative="1" as="geometry"/>
                </mxCell>
                <mxCell id="fVUmnMzmdv8v57rQySdX-178" value="&lt;font style=&quot;font-size: 35px&quot;&gt;Log config's average model performance&lt;/font&gt;" style="rounded=1;whiteSpace=wrap;html=1;fontSize=16;strokeColor=#b85450;strokeWidth=4;fillColor=#f8cecc;glass=0;shadow=0;sketch=0;fontStyle=1" parent="1" vertex="1">
                    <mxGeometry x="389.14000000000004" y="2000" width="251.59" height="170" as="geometry"/>
                </mxCell>
                <mxCell id="fVUmnMzmdv8v57rQySdX-179" value="" style="shape=image;verticalLabelPosition=bottom;labelBackgroundColor=#ffffff;verticalAlign=top;aspect=fixed;imageAspect=0;image=data:image/png,iVBORw0KGgoAAAANSUhEUgAAAf4AAAEWCAYAAACHePXKAAAAOXRFWHRTb2Z0d2FyZQBNYXRwbG90bGliIHZlcnNpb24zLjQuMywgaHR0cHM6Ly9tYXRwbG90bGliLm9yZy/MnkTPAAAACXBIWXMAAAsTAAALEwEAmpwYAABKSUlEQVR4nO3deXwcdf348dc7SZP0brfpRe9qaKHaIlbFr6AoQTm0QFsOQRC0ggcN+vOkHi0e9T5oBUqJ3CjUEiVfAcH0CygKQktpoeVI6Z1eySY90jRJN3n//pjZsNnsJrtJdmeP9/Px2Eeyn5mdee/szLxn5vOZz4iqYowxxpjskON1AMYYY4xJHkv8xhhjTBaxxG+MMcZkEUv8xhhjTBaxxG+MMcZkEUv8xhhjTBZJSOIXkUUiUub+P1lEVETy3PePi8hnEzDPTSJyZl9Pty+JyEQRaRCR3ARMe4mI3N/X0+1mntNE5GUROSIipSKyQkS+n8wYupLAda2/iPyviBwSkT/39fQzlYg8LSILogxL2LaRzkTkTBHZncDpXy0iz4a8bxCRqe7/ndZzEfmxiNSKyL5ExZSJulr3vdBt4neT9jvDytqTTKQVU1WXqmrEL6mq56rqPb0JWkTuFpEfh013hqo+3Zvp9jUR2S4iJcH3qrpTVQepaquXcfWhbwFPqepgVV2mql9U1R95EUikA5++WNeimA+MBkao6sW9nVi0nXvozsIdp83dMYe+PhgybpNbVisi5SIyNmx6J4tIhbsjPyIiT4nI/8QQ3xR33rf19rtGE75t9NWOMvzEw3TN/Q22um87rOciMhH4OnCyqo5JdmyRclHY8KtFpNXdBg67JyWfdId1uf1EmNZ2ETnmjlMvIo+KyIREfbdYhR+o9ZRd6je9MQnYlOiZpOBOexLwpqoG4v1gL7/LHnfHHPp6LmT49ao6CHgnMAj4Vch83wH8G3gFmAKcAPwFeDLazi/EVUA9cKmIFEQbKQV/p14TR1ruJ/vg9whfzycCflU90INYkrUcn3O3gWHAH4BVIjLcHdbd9hPuU+60xgL7geUJjTyZVLXLF6DAO8PKlgD3AwOBY0Ab0OC+TggOd8ed7E4jz33/NLDA/X9DyOca3PHOdIf9GdgHHAL+Ccxwy68FjgMt7mf+1y3fDpS4/xcAvwP2uK/fAQXusDOB3ThHrgeAvcA1XXz/E4AKoA7YAnwhbDmsBh4CjgAvAbPcYfe5y+WYG+e3oiyLHwP/CX4XYATwAHAYeBGYHDK/m4Fd7rB1wBnhv0kX3+MC4GX3s28B58T4/VYB97rfbxMw2x32f0Ar0OTGfiJwN/DjkM9/y12+e4AFhKxLoeuB+/5q4Nmw9e4rQBWwravvD5zjrg/H3Vg2RFjXcoDvATvc3/1eYGjYOvpZYCdQC3w3ynK8KWxen49x2p93p/3PCNM8E9gdoTw0/ojjRBrXff9lYFPI+/uAxyJ87rZIMYUMF3d9+RLOzm9+hP1D+O8UbV17GvgRzgHIEeBJoCh8PwH8hI7r1u/dcaYD/8BZV98ALgmJoz/wa/c3OAQ865btdKcb3Md8kLBthcjb5U/cOI/hHEhFnXeEZbYdd18Uvm3Szbrmxnw3zoHWZuCbob87zvb6MFADbANKI+yP7neX/YIIsY3A2d4PAy+4v0f4dvdOOq/n19FxX3+3O/5pOPuvgzj78zPD1smYl6P7vW8BHsVZP/4LvMMd9k83tqPu/C+N8N2uDvsuA93PzKab7SeG3/A8nIOgaNtb+LzPBl7HWRd/DzzD29tyLs66Wuv+htfTcf0binPQsheoxskRucBJONtEq7sMDobEttldZtXAN7r9fjEsgKiJP9oOiRgTf9hnrnUX1BD3/eeAwbydxF8OW0F+HPb59h8K+CHwPDAKGImzYv4oJN6AO04/d6E1AsOjfP9/ArcChcApOBvcx0K+53GcS2L9gG+4P2S/KCtPpGWxBXiH+2NvBt4ESnB2gPcCd4V8/jM4G24ezoHLPqAwfJlH+A7vx1kBz8ZJUuOA6TF+vyZ3GeUCPwWe72Llb/9dcJLxPmAGMABnZxRv4v8H4AP69+T70zFxfs5d1lNxzobLgfvCfpc7cHa8s4Bm4KQoy7PDvGKc9r04O6L+EaZ3Jn2Y+N1lVAk8EjJ8HxEOcIGP4uxIOsXlDj/DXRbDcc54/jfC/qH9d6Lrde1pnAOBE91xnwZ+Fst+wl12u4Br3N//PTg7zpPd4be4nxmHs67+D86+o8N0o/x+kea9E2fdzcPZNqPOO8Iy2073iT/iugb8DPiXuzwnAK8Gf3d3ea4DfgDk46xvW4FPhO2PLnTHjbSuPYhzMD8QeBdOouiU+KMspzPpeBAyDvDj7B9y3N/cD4zsyXLE2X/4cdahPJwToAcjxRZluV8d/C7u52/ASYZDw2Pv7kXHfDIAuAe4t4t9X+i8i9z5BvPC13ByTnD7/CLOvn48znZVScf17y/A7e5vNArnAO26SPtJt2wvb58EDQdO7e77pcQlLBE5HeeoZo6qHgZQ1TtV9YiqNuOsgLNEZGiMk7wC+KGqHlDVGpyj1ytDhh93hx9X1cdwjp6mRYhrAvAh4Nuq2qSqLwNlOJc+g9ap6mpVPQ78BieBnhbrd8dJ7G+p6iHgceAtVa1U5/Lan3E2DgBU9X5V9atqQFV/jbNj6xR3BJ8H7lTVf6hqm6pWq+rrMX6/Z1X1MXXqXu/D2VHF4hL3u21S1Uac3zBeP1XVOlU9Br36/uCsE79R1a2q2gDcCFwWdjn0JlU9pqobcM5eYv2usUx7iaoeDX6XCE4QkYOhL+D07sYRkYEhw5eJyCGcnWkRsDBkWBHODiLcXpydti9KXJ8FHlfVeuCPwDkiMipsnNDfKeK6FjLuXar6pjvuKpyDzVh8Etiuqne5v/96nDPfi91LyJ8DbnDn16qq/3H3HT11t7vuBnAOYiPOuxfTj7auXQL8xF2eu4BlIZ95H05S/aGqtqhTF38HcFnIOM+p6l/dZd9hXXMbTs4DfuCui6/iJLSe+gzOVaTH3Pn9A1iLcyAQFO9y/IuqvuCO/wCxrx9Bp7nbzj7g08BF7r4Vut9+wv3VnVbwQPaXMcZwHs7VtmBe+J0bT9AlwM2qutvdrn4WHCAio93Pf9X9jQ4Av6XjbxzuOHCyiAxR1XpVfam7AGNJ/K04Ry2h+rkz6zU3+awCPquqb7pluSLyMxF5S0QO4xx9gbPzisUJOJf8gna4ZUF+7Vg/24hzphZpOnWqeiRsWuNC3u8K/qOqbTjVCKHz6s7+kP+PRXjfHpeIfENEXnMbZx3EOZKNZZlMwDnTChfL9wtdYRuBwhjrDk8gZNmE/R+rDp/pxfcPxhO+TuThNF4KCv+ukdaJnk67u++/R1WHhb5wLld3OY6qHg0ZXqqqQ4GZOEf+40OG1eLUVYYbi3P5tj58gIj0x9kpPwCgTn3oTuDysFFDv1u0dS2op8t4EvCBsAOjK4AxOOtAYTfzjVfod+pq3j0VbTmEbzeh69UkwpIXsIjY17OROOtltOnHaxLOgVf4wWroehbvcuzp+hH0vLtdFKnqaapaGTKsu+0n3IXudliIczn+GRGJ5Tfv8BuqqtJxOXS1b5yEk1/3hiyj23HO/KOZh3OwsENEnomhzU5MiX8nzuWpUFN4e4XRGKYRkbtj+SvwO1V9PGTQ5Tj1hCU4O/fg/CXGee7BWYBBE92yeO0BfCIyOGxa1SHv21t6umce40Pm1eNlE05EzsCpM78Ep1piGM6RqHT1OdcunOqEcLF8v57aS8fEE94i9ijOJbSgSBtU+/KL4fv3ZJ0I0PFAq6dimXafrQvdUdVXcK6g3SIiweVTSeQz1EtwzhIbIwy7CBgC3Coi+8S5hWsczlWADrMM+T/auhav8OW1C3gmbKc9SFW/hHNQ0xRlvpGWe1zrXjfzjiSW6Uezl47bysSwOLaFxTFYVUPPsLtaz2pw1sto04/XLpwqrdB4Bqrqz0LG6c1yTAnuFaRynJPg4FW4rn7jDr+huw1OCBsebd+4C6fqpyhkGQ1R1RnBcCLE96KqXoBzcPBXnBPpLsWS+B8Cvici40UkR5zb0z6F04gEnJ3biDguw4e6E3hdVX8RVj4Y58v7cRbu0rDh+3Hqt6L5kxvzSBEpwqkTi/sed/dS23+An4pIoYjMxLmUGTqt94rIXPcs+Ktu3M/HGGc8BuNstDVAnoj8AGenHIs/ANeIyFnubzhORKbH+P16apU7z5NEZAAQfn//y8BcERkgzi06n+9met19//3A5C5aDv8J+Jo4t6YNwlmnHtIetMxP8rR76h6cM8E57vubgP8RkZ+IiE9EBovIQpxqnW9HmcZncbbRd+Nccj0Fp2poloi8O8pnIq5rPYg/fNv5G3CiiFwpIv3c1/tE5CT3StudwG9E5AT3iuEHxbkDoQbnikbotF4GPixO3wFDcapmuhJ13lHGfxmnqqefiMzGqeuN1SrgRhEZLiLj6Vhd8wJwRES+Lc499rki8i4ReV8sE1anuq4cWOJudyfT+SAuHvcDnxKRT7ixFIpz29z4KOPHuxzD9eX+NGbiuADnKtprbvHLRN9/PQrMCMkLpXQ8MFgF3OBuG8MI2f5UdS9Oo9dfi8gQdxt6h4h8xB1lPzBeRPLd2PJF5AoRGepWKxzGWd+7FEvi/yFOcngW53LgL4Ar3Poh1Km/+xOw1b00Ec9l7suAi6TjfZVn4DSE2oFz5rmZtxNp0B9w6jQOishfI0z3xzh1TRtxbl96yS3riU/jXHHYg9PoYnHY5aNHgEtxls2VwFz3BwCnMdz33Di/0cP5Bz0B/B2n8d8OnDOcmC6fq+oLOA1qfotzlvwMb5+hdvf9esS9grMMeAqn4VvwNwzWu/4Wp9Xwfpwk9UA3k+zu+wc70vGLSKQ6rjtx2ij8E6cBZhMdd6q9kchphzpBOt+HPC/SiKragnMXxPfd91U4ZyuzcKrO9uJcIvyEqv47/PMiMg44C+dq3L6Q1zqc3yFiwuhmXYvHzcB8ce6hXuZWR30cZ5+xB+eS8M9x2nmA07D2FZw7YercYTnulYyfAP92t8PT3Lroh3D2D+twElJUMcw73Pdxrj7U4xxw/TGO730Tzvq9DScB3BcSRytOW4dT3OG1OG1y4jnpuh7n8vk+nMZ0d8Xx2Q7cE4cLcKobanC2x28SJa/0YDmGWwLc4/6Ol/Qg5Ji3H9f/ikgDTjL9CU51dPD25aj7L1Wtxbm69jOck9dinDsbgu7A+W03AuuBx3BOaoL9u1yF03hzM846tJq3q0/+D+fuqn0iUuuWXQlsF6da/Is41SddEqf6wfSEiCzBaWX6Ga9jSXXuUf2rOLdVenkmbIwxKUNEzgVWqGpPDpB7JCVa9ZvMJCIXiUiBOB1o/BznVjBL+saYrOVW05wnInnulbXFOFdbk8YSv0mk63A6tHkL5zJWSjfiMcaYJBCcKp16nEv9r+G0Q0teAHap3xhjjMkedsZvjDHGZJGMe6hGqikqKtLJkyd7HYYxxqSNdevW1arqSK/jyFSW+BNs8uTJrF271uswjDEmbYhIb3oUNN2wS/3GGGNMFrHEb4wxxmQRS/zGGGNMFrHEn+L+/ve/ex0CkBpx/P73v/c6hJRhyyL1PPfcc16HkDJs/UxtlvhT2Pe//32WLl3K4sWLsz6Oyy67jFWrVnH55eFPhM0+tixSz7Jly/j2t79tCQ9bP9OBJX6XiNwpIgdE5NUow0VElonIFhHZKCKnJjKeI0eO8MwzzwDw1FNPceTIkUTOLqXjOHDgAHv2OE863r17NwcOHEh6DKnClkXqaWxsZPVq52Glq1atorEx0hOOs4Otn+nBEv/b7gbO6WL4uThPWSoGrgVuS2QwV155ZZfvkyUV4rj44ou7fJ9sNTU1ns071ZaFgS996Utdvs8mtn6mB0v8LlX9J87jPKO5ALhXHc8Dw0RkbBfj90hFRQVXXXUVdXUdQ6mrq+Oqq66ioqKir2cZ1VNPPRUxjuAVgGT4wx/+QHi30qrK3XffnbQYQm3YsIF58+axcePGhM+roqKC0tJSSktLufzyyznrrLMiLouzzjqLyy+/vH3cZK4jqcDLA7F169axbdu2DmXbtm1j/fr1HkXknVTbVk101ld/CBGZDPxNVd8VYdjfgJ+p6rPu+zXAt1W1U+88InItzlUBJk6c+N4dO7rui6KiooLKykoAqqqqONrYSF6/zo+oDhxvZuCAARQXFwNQUlLCnDlz4vqOsQjGs3HjRtra2joNHzBgQFIa+1VUVPCrX/0q6vBvfOMbCfn+0QQCAS6++GL8fj9FRUWsWrWKvLzE9YFVWlrK5k2vM3Jo7MeXNYf2cvKM6SxbtixhcaWSDRs2UFpayvLly5k5c2bS5hvcRl599VUCgc4PnBwxYgR/+UtSH7iWVKH7rNraWurr6zl69GjU8U855RQg9n2WiKxT1dl9EqzpxHruSwBVXQmsBJg9e3a3R1aVlZVs3PQa+cNGwQAfhQN8EcfLw3nE3evVfloOOnVniUh8lZWVVL32KiePH9Zp2Lb9hxk5alSfzzMo/CBIRMjNz+00XmtLK7fddlv7uIk6CAq1evXq9isgfr+fhx9+mEsvvTSh8xw5dCxzP7Ig5vHLnylLYDSpJRAIsHTpUlSVpUuXcv/99yf0QCx83WxsbCQ/P5/c3I7rZ0tLC0ePHqW0tBRIzrqZbJWVlWx47XXyx5wAuflQNJqCoujjv1Z/mJZ9Tt1/pi2LdGSJP3bVwISQ9+Pdsj6RP2wUY8+8Iubx9z79QF/NGui8U4t2tKI4l1aDOzXo2x1bZWUlGzdvpKCoAIZC4dDCiOP1ox9ttPHGgTdorm0GErtD8fv9rFy5sv1Spqpy++23c/bZZ+PzRT5QM4lVXl5OfX094FRBlZeXc8kllyRsfpWVlWzatAmfz8egQYMYNGhQl+Pv3bu3/UAxE5Nd/pgTGH3NF2Mef/9dKxIYjYmHJf7YVQDXi8iDwAeAQ6q61+OY+kxlZSVvbtrAZF8/Jg0CyKGtuaHTeJOH5QDHadm7GYDtdceBvt2xFRQVMHHuxJjH31m+s8/mHU1FRUWnS7qBQICKigquvvrqhM8/VdXU1DByZPKfpeL3+ykrK6OpqQmApqYmysrKKCkpSeiBmM/n4+Mf/3jM4z/55JMJi8WYnrLE7xKRPwFnAkUishtYDPQDUNUVwGPAecAWoBG4xptIE2eyrx9LzonvMv6Sv2fH7Toi4nUIKWfDhg0sXLiQ3//+90mtXwdYs2ZNe9IPampqorKyMqFn/cZkAmvV71LVT6vqWFXtp6rjVfUPqrrCTfq4rfm/oqrvUNV3R2rUZzLXGWecEbH8wx/+cJIjSQ2BQIAlS5YAsHjx4ogN3BKppKQkrnJjzNss8RsTgz/96U8Ryx988MEkR5IaVq9ejd/vB5z69WAHNsnyxBNPRCwPtlPJVl7e2mjShyV+Y2LwwgsvADBwwAAGDhjQXv788897FZJn/H4/t99+e/t7VWXlypWd+nxIpLIy5+6FnJwccnLe3o2FxpVtNmzYwPz585PSx4RJb5b4jYlBtEv6X//615McifcqKipobW3tUBZs6Jis+Yc2KCwsKGxP/iNHjsy6Doyg862Nya56MenFEr8xMdi5cycDCgqYVDQSdZOez+fjIx/5iMeRJZ/XDR0rKys56K/n5IknMn38O5k8cjzTx7+TkyeeyEF/fVZe7i8vL2+veqmtraW8vNzjiEwqs1b9xsRo8ugx3HTVVSy+914279zBfffd53VInpgzZw733ntvh7PKvLy8pN6rPnn0BG666ludyhff+4teTTe0P4twVVVVtLS0xHWLXl1dHQ0NDR36vQjVF31g+P1+7rjjDlpaWgCnA6E77rgj4bc2mvRlid+YHsjNzWXw4MFeh+EJn8/Htddey6233tpedt111yU0yXTqYCrQFjHJb9+/C/Hn9LjXvGA3vJE65+nXrx/9+vWjubk55ukNHDjQiWv79k7DGhqcfjJ6m/jXrFnTKabm5ma7tdFEZYnfmB4oLIzco2C2uOiiizok/gsvvDCh86usrOTNza8z0TeOCYPHANDW0tppvInDTwCgad8RdtY5HWvGm1gHDRrEqacm9KnbALz00kt9Mp33vve9Ectnz+5dV/fdXv0ItMbVG1/Lvj1U1e5P6NUPExtL/MaYuD300EMd3q9atSrhj2ye6BvHonO/EvP4Sx+/JYHReCM8GdfW1rJv376I4y5YsIAxY8ZQVOR0ot+Tqx/rN79G68jRnQcOGwHA8XgaERaN4hCwtqbz3R+5NfuBzOzaOBVZ4jemC8EdrXN5OcDie+9l+/59NB0/TmlpaVaepQS7yw11xx13cP7551udcoJVVlby2msbGTMmH4DcXBg3Lo/ou/Ja6utr2bfPqf+Pd11tHTmao/MSe0AHMPDh7Gwv4xVL/MZ0obKykjc2bWLi0KEAtDYeZYJbt//Gpk1A9p2lrFgR+fLuihUrWLRoUZKjyT5jxuTz2avHxfWZe+7us+eJmQxgid+YMOENydAozypUpaqqKqMfvxrJf//734jl2diZkTHpyBJ/knTXUKa5JRDXo3abDx6gqrHOGsokQGVlJa9v3Mi4wkLGAOTnE2hs7DTeCfn5oMqRN9+k2n1gTKYt89D1tra2lvr6+qit2nNzc3t1ENTdNtLW0hpXvf0OfzU5R3JtGzEmjCX+JKmsrGT9K5tpGxChDjRnMBRCoOl47BMsHM5hYN1bnRv25DSm9jPAuz0IOt4c16N2m2ubqTpU1ac7+HGFhSycNDnm8Zfv2B7X9NNFZWUlm199Bd8g57a0wf1yGdxvQOSRW4+zb/tW6hqOAvGvf5WVlbzx6mvtrfZDjcsvgnxoa469MdmEQU6jtMYd9Z2G7Tqyr0cxGpMJLPEnUdsAH00nfzLh8ync/LeEz6M3KisrWb9pPQyLMNDNKY3HO59hRzUUGmhgffX6zsMOOn/Cd/DdHXy0NjXFlcyrm5rIrerbg49k6W5ZRKvpiEaVDlUg4bpaFhMGj+Hr70/8E69//cJdCZ+HManKEr/xxjBoO7Mt4bPJeTpyr9SVlZW8/vLLdD63hGAv8K0RLu9HMwbg6FEOvvxyp2HBazKpmvgrKyt5dcMGBud33h3kA/l5OTQfOxbz9Abl5UCghR2vbeo07EiLc8aeqsvCmGxgid9krTHA50l8v/N/IM5TZg8Mzs/j/aOHJ3w+L+zvfNndGJNc9pAeY4wxJovYGb8xHuqufv14cyvlz5RFHB5JzcG9HDx2IC3bGhhjksMSvzEeqqysZNMrrzFswKhOwwbk+KA/tMTRkn1of6eFQvVb/k7DDjYeAKx+3ZhsZ4nfZC1/UxMvJmM+RL6BIWjYgFF8dPplCY/jqdcfTPg8jDGpz+r4jTHGmCxiZ/xZpNv7tVuOs+TvB+Ka5va640hD5Hu2U70+eURhIe9LQqv+jWnQqt+klmjbalVVFYFAc9x97+/b10xtbXr2M2H6niX+JGo+Us/x6s0Jn48cqYcId6hXVlby5qsvMXFQ5+eYT+gH9IO25pa45jVxIEALTds7XjTf2ZALWH2yiU/NYT/PblublPlMIvG3L/ZUZWUlmzevp2hkx4PGocOcv8cDcXRwBYwoAjjCgZqXOg2rrXEOfm1bzR6W+LPMxEGtfG92Q8Ln8+O1gxI+D2MyWdFIZe7c+A7Ee6K8PD/h8zCpxRJ/EhUMHo6OOznx8zm0NeHzMJnl8NFGtvkTX+1x+GjXZ6ojh4zg9CmzEx7Hf2teSfg8MkFznZ/WjZ2vEiRiPoyM8BwTkxCW+E3W2kdyetXbR9et+o0xJpks8ZusVFJSEnVYVVUVrceOMa6wMObpVTc1kdu/P8XFxZ2GDetmfqlgyMABTBkxLOHzqQlYQ8d0UuAbQWDmqYmfT1Xn5zqYxLHEb7LSnDlzojZmKi0t5cibb8b9WN7BxcUsW7asjyI0xpjEsMRvjMcOHanjzT0vJ2U+4xiR8Pn0xq4j+5LyyNxdR/YxLYVb9RuTSJb4kyinsY7CzX9Lynwi3c5nTCrrrvqlraWVSSPGxTy9Hf5qcvJzI1a/TGN4yle/GJMolviTpLudWmNLgIJhnftrj6b54AEG5OdF3KnBGNuppZGhg32ceMIpCZ9P9eHXEz6P3uiu+qVp3xEWnfuVmKe39PFbKBwz2KpfjAljiT9JutupvV7tZ+yZV8Q8vb1PP0DxuBG2UzPGGBMX66vfGGOMySKW+I0xxpgsYonfGGOMySIZU8cvIsshejdsqhr5sVTGGI60BHhhf31S5mNiU1/XxCuvJH551de1MWpkwmdjUkjGJH4g+EivDwEnAw+57y8GEv9IPGPSVHd3nLQ0NTFi8MCYp+c/cpT8wsIod5ykfi+GxmS6jEn8qnoPgIh8CThdVQPu+xXAv7yMLRYtBw+w9+kH4hqfcandGYtJD93dcbJv+1bOfc+7Y57e4+tfYczkqXbHSS8N9xXy7ncn/ul8VVX2dL5skzGJP8RwYAhQ574f5JZ1SUTOAW4GcoEyVf1Z2PCJwD04Xa/nAt9R1cf6IuDQM6Cqqiqaj7cydNQJncY7dGAPBf3cDknGjbAzpwxxsPEAT73+YFLmk+o993VlZ101Sx+/Ja7xTxwzPYERGZOeMjHx/wxYLyJPAQJ8GFjS1QdEJBe4BTgb2A28KCIVqhpaRfA9YJWq3iYiJwOPAZP7IuDQM67S0lJ21R7mfy75cqfx/rPqViYUDbEzqQzS3WX2482tjBw2Nubp1RzcS7+CyL3VjSN9DxbDD4410Mbk0RM6jbd9/y4kL4fi4mJOHDM9bb+vMYmUcYlfVe8SkceBD7hF31bVfd187P3AFlXdCiAiDwIX0LFtgOJcSQAYCuzpu6hNturuMnvN7kPM/ciCmKdX/kwZI8cPzbiDw/CD45a6Rm666ludxlt87y/I9w3IuO9vTF/K1Nv5moG9QD1wooh8uJvxxwG7Qt7vdstCLQE+IyK7cc72F0abmIhcKyJrRWRtTU1NvLEbY4wxCZNxiV9EFgD/BJ4AbnL/LumDSX8auFtVxwPnAfeJSMTlp6orVXW2qs4eOdLukzHGGJM6Mu5SP3AD8D7geVX9qIhMB5Z285lqILTCcLxbFurzwDkAqvqciBQCRcCBPonapJTqpiaW79ge1/jWjMwYkw4yMfE3qWqTiCAiBar6uohM6+YzLwLFIjIFJ+FfBlweNs5O4CzgbhE5CSgE7Dp+BgpvSNbW3MzEYcM6jbfz4EFyCgooLi5mOnZ/ujEmPWRi4t8tIsOAvwL/EJF6YEdXH1DVgIhcj1MtkAvcqaqbROSHwFpVrQC+DtwhIl/Daeh3tapG7SnQpK/whmTHdu/m2x/5SKfxfv7MM/QfPz7jG5LVNRzl8fWvxDX+mATGY4zpnYxL/Kp6kfvvEveWvqHA32P43GM4jfZCy34Q8v9mnF4Bjcka4Vc/Ai0tjB7h6zTefn8defn5FBcXMwa7+tEXamuE8vLEd65TWyPWZW+WybjEDyAipwPF7q19I3Fa6G/zOCwToulQE1qV+Asmckg6359hYhZ+9aNu316u+uQ5nca7929/xzdmbMZf/UiWaAdOVVVVBAKNjBlTENf09u1rJi9vQMT+HUaNtAO1bJNxiV9EFgOzgWnAXUA/4H7S6Gz9UM0e/rPq1ojlE4qGRPiEMSaTROvfobS0lPr61/ns1fEdzd5zdzXDhxfbgZkBMjDxAxcB7wFeAlDVPSIy2NuQYhc88q6qqiLQ2saocRM5UL2TvNwc3nVS5vREVji0kLbitoTPJ6c64+5YNcaYXsnExN+iqioiCiAisT9WLAUEj/RLS0vxHznGFQtv5IHlP2XE4P59crR+4HAzT29v7YNIu5/PxITPxRhjTLwy8XRolYjcDgwTkS8AlcAdHsdkjDHGpISMOuMXEQEeAqYDh3Hq+X+gqv/wNLAUMmpIAWdOPp7w+TxbG1/jo1S289Ahfv7MMxHLp40fn9B51xzaS/kzZXGNP3L80ARGZIxJdxmV+N1L/I+p6rsBS/am10LbXGggwOTRY9i+fx9Nx48zc+bMhLa56HQr3fE2xo7qfKCx98Bu8vo5T6QbOX5oQmPaX1fHvX/rfHfs/ro6fGNif4qgMcY7GZX4XS+JyPtU9UWvAzHpL7TNRUtdPTdddRWL772XHf7ahLeQDr+V7mDtURZc/LVO45X9+bcMKxqY8HhCD4LaWgOMHzuW3Xv30tyS+IMgY0zfycQ6/g8Az4vIWyKyUUReEZGNXgfVEweqd/LA8p9yoHqn16EYw5w5c1i2bBnFxcWMHzuWr127gPFjx9K/v9PwNNrjhY0xqSUTz/g/4XUAfaGkpISqqip2vfUGAwcOtLMpYwwA+/a1cM/d4c8Q6/4zw4fHP6/cmv0MfPi++D/Yg/kwsnOPkCYxMi7xq+oOETkVOB2nT/1/q+pLHocVtzlz5lBZWcnLL79McXGxnU0ZYzqdAFRVVdHa2sz4CA06d+8+RG6u8xCp4cPj752vq/GrqqpoDLSSP+aEmKfXsm8PA/JyI/YeyEifndwkUcYlfhH5AXAxUO4W3SUif1bVH3sYljGmD23fv4vF9/4iYvmJvu4expm+wnv0Ky0tpaFhFwsXdu6YdPnyfzNo0IQet/2I1ntgcL6v1R9m9DVfjHl6++9aQfHwIdZ7YArIuMQPXAHMUtUmABH5GfAyYInfmAwQPDPcuHEjhQWFTB0/ma27tyM5woknTbMzR2O6kYmJfw9QCDS57wuA+CrEjIlg+/59LL73Xrbv34fkZeKmE7vde/fx25Vl7N67j5zc3KTOO3gmeu655zLlhEn89GtLuPG3S8gbmN8nZ5OHDx9mx44un+TdJw4fPpzweRgTSSa26j8EbBKRu0XkLuBV4KCILBORtLrG1NDQ0OGv8U5JSQmSl8eO2hokN5fhPWkplSFKSkrIyc2lev8BJCeHAQMGeB2SMSYOmXja8hf3FfS0R3H0SiAQYPv27QBs376dQCBAXpafZXop2NiyrbkZgJyCzOmZMF5z5szhH//4B4HjLQBUbXkro9bPIUOGMGnSpITPx+/3J3wexkSScWf8qnqPqt4D/BHYCDweLHPL08Lq1asJBAKAcxDw8MMPexyRMW+rqalp///48eOUl5d3MbYxJpVkxiE6ICIrgOWquklEhgLPAa2AT0S+oap/8jbC2Pn9flauXNmh7Pbbb+fss8/G57N7XbPVvprdlP35txHLhxUlryW73+9n7969HDx4EABVpaysjJKSEls/jUkDmXTGf4aqbnL/vwZ40+2z/73At7wLK34VFRXtZ/tBgUCAiooKjyIyXispKWH6SdPYuect9tdWk1+Qx/7aamrq9zA9yS3Z16xZQ05ODo2NjTQ2NgLQ1tZGZWVl0mIwxvRcJiX+lpD/zwb+CqCq+zyJphechwwa87Zgd7n9+/dnwrhJfPP67zNh3CSKi4uT3l1uSUkJ/fr161CWk5Njt9EZkyYy5lI/Tsv9T+Lcuvch4PMAIpIH9PcysHhNnjw5YvmUKVOSG4gxEfh8Pq666qoO1VFXXXWVXeb3SHX1IZYv/3fE8mnTJngQkUl1mXTGfx1wPXAX8NWQM/2zgEc9i6oHysoiP3/9jjvuSHIkxkT25JNPdnj/j3/YU7C9UFJSwrRp72Lr1nqqqxvIyxtIdXUDe/c2MW3au+wqjIkoYxK/qr6pqueo6imqendI+ROq+nUPQ4vbqaeeGle5Mcm0bt269ltNg7Zt28b69eu9CSiLhVYBTZo0mu9+9womTRrtSRWQSR8Zk/gzydVXXx1XuUm+2tpar0PwzG9/2/nOAoBf//rXSY7EGNMTlvhTkM/n49prr+1Qdt1111kdqsfa2tp4a8cO3tqxg927d9PsduaTbLuqd/DL3/+IXdWJ71Y2ErsiZUx6s8Sfoi6++OIO7+fPn+9RJCaosbGRo+4L4Kabbkp6DMOHD0dyhN17d3KsqZGPfexjSY/hggsuiFh+4YUXJjcQY0yPZFKrfgBEpACYB0wm5Pup6g+9iqknHnnkEfLz82lpaSE/P59HHnmESy65xOuw+s5ByHk6CcedB4FxvZ/Mli1b2LJlS4eyZ599lq1btzJ16tTezyBGbW1tTJ3izO/VTa94ctVh3bp1EcvXrl2b1GVhjOmZjEv8wCM4D+pZB3hzLbaX/H4/ZWVltLQ4XRO0tLRkVM9oXbU0rqqq4tjxYxQUxd4XfnNtM/379ae4uLjzwHFdzy9Wd955Z8TysrIyli5d2uvpx8Lv97Nnzx4OHTzUXuZFj44lJSXccccdHQ46CgoKrAW5MWkiExP/eFU9x+sgemPNmjW0tbV1KAv2jJYJZ/3Bx6pGUlpayhsH3mDi3IkxT29n+U6KRxX3ySNZo1mwYAHPPvtsxPJkCfbceLTxaHtZsEfHZDb89Pl8fOELX2DlypXtV6S+8IUvZMRBaTrbuXM/P/nJA+zcuZ8TT7TfwkSXiYn/PyLyblV9xetAeqqkpKTTvfzWM5q3pk6dyumnn94h+Z9++ulJvbR97NixuMoTae7cuTz44IPU1tYyZMgQ5s6dm/QYzNuGDx9Ofb2fXbtqEMlLyr6iZd8e9t+1Iq7xGT4kgRGZWGVi4j8duFpEtuFc6hdAVXWmt2HFzufzsWDBAsrKymhqaqKwsJAFCxbYGZXHFi9ezDnnnENrayu5ubksXrw4qfNPpcQPzsN5Qv8a7xQVFTF8+CAAjh0LJPz+/dADi6qqKppb2xgyvnMvgYd376IgN8ephhs+xE5eUkQmJv5zvQ6gL8ydO5fy8nL27NmDz+ezM6oUUFBQwEUXXcTq1auZN28eBQWxt0PoC3v37o2rPJHKy8s5etSpcjh69Cjl5eUZUQ2VrkIPvrZt20YgECAvL3G799DqutLSUnY2NHJaaed+0p5f9msmDhqQ0Go4E7+Mu51PVXcAw4BPua9hbllaycvL48Ybb0REWLRoUUI3YhObQCDAv//t9In+7LPPdnqCYqJ9+ctfjlj+pS99KalxBBufNjU1AdDU1ERZWRl1dXVJjcO87cCBA+3/t7a2smrVKg+jMaku4xK/iNwAPACMcl/3i8hCb6PqmVmzZrF69WpmzkybWoqMVl5eTn19PQB1dXWUl5cndf5Tp07lQx/6UIeyZLczgK4bnybbtt3bufG3S9i2e3vS550q/H4/e/fuZevWnWzduhNw7vawAzETTSaeRn4e+ICqHgUQkZ8DzwHLPY2qh0aOHOl1CEnXXNvMzvKdcY3PqAQGRPSz3GTfYrlkyRI+8YlP0NbWRk5OTtLbGUDqND4dPnw49XX1bKveATmStfXHDz74IABHjza2l6kqDz30UNKvBpn0kHFn/DiN+VpD3re6ZSYNlJSUMPPkmUwbNY2cQzkc9x9nYP7ATq/j/uPkHMph2qhpzDx5ZsJ3+qlylltQUMDChc4FrBtuuCHp7Qzg7canhYWFAJ41Pi0qKuIdU6byjilTKS4uztoH0mzbti1i+datW5MciUkXmXjGfxfwXxH5i/v+QuAP3oVj4hHeaGj3wd2cseCMTuP9q+xfjB82PmmNhlLlLBdg3rx5zJgxg+nTpyd93kHW+DR1fPKTn+SFF16IWG5MJBl3xq+qvwGuAerc1zWq+rvuPici54jIGyKyRUS+E2WcS0Rks4hsEpE/9mngJqX5fD5mz57doWz27Nme3WLpZdIHa3yaSp588smI5U888USSIzHpImO2VhEZoqqHRcQHbHdfwWE+VY3a0kVEcoFbgLOB3cCLIlKhqptDxikGbgQ+pKr1IpLgWmWTSvx+Py+++GKHshdffJG6urqs7V8h2Pg0G9uhpJJU6FXSpJdMOuMPnoGvA9aGvILvu/J+YIuqblXVFuBBIPwRZF8AblHVegBVPYDJGmvWrOnUUY2qetKSPZVY0vdesFfJUF7c7WHSR8YkflX9pPt3iqpODXlNUdXutoBxwK6Q97vp/Ey3E4ETReTfIvK8iER9HoCIXCsia0VkbU1NTU++jkkxJSUl5OR03FysG2WTKhYvXkxubi6AJ71KmvSSMYk/SETWxFLWA3lAMXAm8GngDhEZFmlEVV2pqrNVdbadEWWGVGnJbiJraGjwOgRPFRQUcP311wNOo1gv7vYw6SOT6vgLgQFAkYgM5+1b+IbQ/RPZq4HQjqbHu2WhdgP/VdXjwDYReRPnQOBFTFawluypRVV5a5tzy9rxwPGEd1Ob6lLhbg+THjLpjP86nPr86e7f4OsR4PfdfPZFoFhEpohIPnAZUBE2zl9xzvYRkSKcS/92o2wWsZbsqWX48OE0HmvkaONR2trakt6TYiqypG9ikTGJX1VvVtUpwDdC6vanqOosVe0y8atqALgeeAJ4DVilqptE5IciEuwV5AnALyKbgaeAb6qqP4FfyaSgVOlGOdvbjvj9fp5//vn2BpeBQMCeF2BMjDLulEVVl4vIu4CTgcKQ8nu7+dxjwGNhZT8I+V+B/+e+0tbOhlx+vHZQUuZzYsLn4g2v221s2LCB0tJSli9f7vkBiFe66knRnhJoTNcyLvGLyGKcS/In4yTyc4FngS4TfzboqgV6VVUV2tLIZF+/uKa5ve44kj/Aed52iBO7mZ/pmUAgwNKlS1FVli5dyv3335+VVQ6p1JOiMekmE/cY84FZwHpVvUZERgP3exxTSgjtDjdcaWkpLXs3s+Sc+PolWvL3A+SPLbbnbSdJpCcEZuMZbvAui+CDk+wuC2NilzF1/CGOqWobEBCRIcABOrbYNyYtRXtCYLbWa8+dO7c90dtdFo5sb/thYpOJiX+te3/9HTit+l/CeSyvMWktVZ4QmCry8vLa21uMHj06K6s8Qm3YsIH58+ezceNGr0MxKS7jEr+qfllVD6rqCpy+9z+rqtd4HZcxvWW9B3Z05MgRNmzYAMD69es5cuSIxxF5J7ztRyAQ8Dokk8IyLvGLyBoROQ9AVber6kYRWel1XMb0lvUe2NFnPvOZDu+vvPJKjyLxXqS2H8ZEk3GJH5gCfNtt3R80O9rIxqQTq9d2PPXUU+2JLqiuro5nnnnGo4i8Y20/TLwyMfEfBM4CRovI/4rIUI/jMabPWO+Bjt/85jcRy3/1q18lORLvWdsPE69M3GuI2xPfl0Xkapx7+Id7G5IxfSfYe6DXHQl5aezYsRw6dChieW81NDTw0ksv9Xo6scynL1ifBiZemZj4VwT/UdW7ReQV4CsexmNMn8vmpA/wne98h6uvvjpieW9018lVS0tLXG0q6urqyM/P79TBVSzzi5X1aWDilTGJX0SGqOph4M8iErrGbwO+4VFYxpgEmDp1KqeddhrPP/98e9lpp53G1KlTezXd7jq52rt3Lx//+Mdjnt6TTz7J2LFjE97BlT050sQjYxI/8Efgkzj37itvP5YX933v9gjGmJTyox/9iLPPPrvD+2wVbPtRWlrqSduPw9W7eH7ZryOWM21aUmMx3cuYxK+qn3T/TvE6FmNM4hUUFHDDDTdw880387WvfY2CggKvQ/KUV20/gtUVVVVVBNqUUZMmcWDHDo43NzFz5kxra5CCMibxi8ipXQ1X1cS31jF97tC+Q/yr7F8Ry8cPG+9BRCaVzJs3jxkzZthz6F1etP0IVo+Ulpbib2rm8u8t5o8/vom6XTvtGR4pKmMSP9D5OtPbFPhYsgIxfSN4prBx40b6FfRj9ITR7N+1n7ycPGZMn2FnEgbAkr4xccqYxK+qH/U6BtO3gmcS5557LiPGjeDKb17Jfb+8D98An51JGGNMD2VM4heRj6nq/4lIxOasqmp9WBpjjMl6GZP4gY8A/wd8KsIwBSzxG2OMyXoZk/hVNdg3/w9VdVvoMBGxlv7GGGMMGZT4QzwMhLfwXw2814NY0sr2uuMs+fuBuD9zYu97STXGGJMkGZP4RWQ6MAMYGlbPPwQo9Caq9BHaQr6qqgoNNDN19JBO423dfxjJK2jvgvTEsX3T7agxxpjkyJjED0zD6blvGB3r+Y8AX/AioHQS2lVpaWkpgbqd/OQzH+g03nfv/y95vonWqt4YY9JUxiR+VX0EeEREPqiqz3kdjzGJVFNTk/UP6jHG9EyO1wH0FRFZLiLLgE+LyDIRuVlEvi8ip3sdmzF9acOGDcyfP5+NGzd6HYoxJg1lTOIH1uI8oCf4egloAH4pIl/1MC5j+kwgEGDp0qWoKkuXLiUQCHgdkjEmzWTSpf57IpWLyArgP8DvkhqQMQlQXl5OfX094Dzrvby8nEsuucTjqEyqsCogE4tMOuOPSFWPeR2DMX3B7/dTVlZGU1MTAE1NTZSVlVFXV+dxZCYVWBWQiVVGJ34RyRORa4DdXsdiTG+tWbOGtra2DmVtbW1UVlZ6FJFJFVYFZOKRMYlfRI6IyOHQF1ANnAtc53F4xvRaSUkJOTkdN9mcnBzrR8FErAIyJpqMSfyqOlhVh4S9RqvqJaq6x+v4jOktn8/HggULKCx0+qMqLCxkwYIF+Hw+jyMzXrIqIBOvjEn8xmSDuXPntid6n8/H3LkRH0ZpsohVAZl4ZUyrfmOyQV5eHjfeeCOlpaUsWrSIvDzbhJOprq6OJ598Mq7xx45N7MMsSkpKKCsr61BmVUCmK3bGb9LC/l37ue+X97F/136vQ/HcrFmzWL16NTNnzvQ6lKxSUlLCjBkzGDt2LA0NDRw8eJCCgoJOr4MHD9LQ0MDYsWOZMWNGwhOwVQGZeGXM6YKIdLmWq6pVeMVh2/7DfPf+/0YsL07y/mT48OHU1dVRu7uWvJw8O5MBu1fbA+HPs6irq+OKK67oNN4DDzyAz+dL6vMs5s6dS3l5OXv27LEqINOtjEn8OL31KSARhikwNbnhpK9gYq2qquLYsUb6F+QDcKy5hf79ByQ98RYVFTF42GAACvIK2ne+xhiHVQGZeGTM2qGqU7yOIVMEz2wqKiq47bbbQJ2GQ6pw3XXXWeI1JgUFq4DsapDpTsbV8YvjMyLyfff9RBF5v9dxpaM5c+YwdOhQnIsozoWUlpYWT2MyxkRnSd/EIuMSP3Ar8EHgcvf9EeAW78JJX36/nwMHDnC0sZGjjY2oqt0fbIyJ6sDOHfzxxzdxYOcOr0MxXcjExP8BVf0K0ASgqvVAfncfEpFzROQNEdkiIt/pYrx5IqIiMrvvQk5Na9as6VQWCATs/mBjTCclJSXkiVC7ayc5IgwfPtzrkEwUmZj4j4tILk6DPkRkJNDW1Qfc8W/B6d73ZODTInJyhPEGAzcAnZu7Z6CSkhJaW1s7lLW2tlqremNMJ3PmzKG4uJhJU6cyaepUioqKvA7JRJGJiX8Z8BdglIj8BHgWWNrNZ94PbFHVraraAjwIXBBhvB8BP8e9mpDp6urqUNUOZarKwYMHvQnIGGNMr2Vc4lfVB4BvAT8F9gIXquqfu/nYOGBXyPvdblk7ETkVmKCqj3YXg4hcKyJrRWRtTU1NXPGnkjvvvDNieXgvYcYYY9JHxiR+EfEFX8AB4E/AH4H93XXuE8O0c4DfAF+PZXxVXamqs1V1djq3sl2wYEFc5cYYY1JfxiR+nA581rp/a4A3gSr3/3XdfLYamBDyfrxbFjQYeBfwtIhsB04DKjK9gd/UqVM5/fTTO5SdfvrpTJ1qfSEZY0y6ypjEr6pTVHUqUAl8SlWLVHUE8Emgu6dqvAgUi8gUEckHLgMqQqZ9yJ3eZFWdDDwPzFHVtQn5Milk8eLF5ObmApCbm8vixYs9jsgYY0xvZEziD3Gaqj4WfKOqjwP/09UHVDUAXA88AbwGrFLVTSLyQxHJ6m7qCgoKuP766wGnf/KCggJP4tixbQc7ttm9wcYY01sZ02VviD0i8j3gfvf9FcCe7j7kHiw8Flb2gyjjntnLGNPKvHnzmDFjBtOnT/dk/iUlJTQ0NLBlyxbPYjDGmEyRiWf8nwZG4tzS9xdglFtmemHEiBGezfu8886jvr4egMrKSgKBgGexGGNMusu4xK+qdap6A/Bh4AxVvcEeyds7GzZsYN68eWzcuNGT+a9evbq9m2C/38/DDz/sSRzGGJMJMi7xi8i7RWQ98CqwSUTWici7vI4rXQUCAZYsWQI4Df2Sfbbt9/tZuXJle0dCqsrtt99uzwswxpgeysQ6/tuB/6eqTwGIyJnASrpp4GciW716NX6/H3B68lu9ejWXXXZZ0uZfUVHR6WAjEAhQUVHB1VdfnbQ4jAm3f/9+HnjggYjlPl+vug4xJqEy7owfGBhM+gCq+jQw0Ltw0pff7+f2229vf6+qrFy5Mqln2yKStHkZE6uSkhJOOumk9idY5ufnc+DAAXbv3s1JJ51kz7MwKS0TE/9WEfm+iEx2X98DtnodVDqqqKjo9JCe4Nl2ssyZM6e9H4GgvLw85szJ6rssjcfmzJnDsmXLKC4uZvz48Xz1q19l/Pjx9O/fn2XLltn6aVJaJib+z+G06i93XyPdMhOnVDjb9vl8XHfdde2xiAjXXnutXUo1xpgeyrjEr6r1qlqqqqe6rxtUtd7ruNLRnDlzyMvr2AzEi7Pt+fPntyd6n8/H/Pnzkzp/Y4zJJBmT+EWkoquX1/GlI5/Px7XXXtuh7Lrrrkv62XZeXl77nQU33XRTp4MRY4wxscukPegHcR6t+yfgv4D316kzwEUXXcSKFStoa2sjJyeHCy+80JM4Zs2axcMPP0w6P+3QGGNSQcac8QNjgEU4T9G7GTgbqFXVZ1T1GU8jS2OPPPJI+xl2Xl4ejzzyiGexPP30057N2xhjMkXGJH5VbVXVv6vqZ3Eem7sF5zG613scWtry+/2UlZXR0tICQEtLC2VlZZ50nrNw4UKWL1/ODTfckPR5G2NMJsmYxA8gIgUiMhfnAT1fAZbh9NdvemDNmjW0tbV1KGtra6OysjKpcRw8eJANGzYAsH79eg4ePJjU+RtjTCbJmMQvIvcCzwGnAjep6vtU9UeqWu1xaGmrpKSEnJyOq0hOTk7SOye59NJLu3xvjDEmdhmT+IHPAMXADcB/ROSw+zoiIoc9ji0t+Xw+FixYQGFhIQCFhYUsWLAgqa36KyoqOHbsWIeyY8eO8eijjyYtBmO6Ul1dze9+9zuqq+0cw6SHjEn8qpqjqoPd15CQ12BVHeJ1fOlq7ty5He6hnzt3blLnf+utt0YsX758eVLjMCaS4FWxPXv2ICIMHz7c65A8t3PrVnZutc5SU1nGJH6TGHl5edx4442ICIsWLUr6PfQLFy6Mq9yYZJozZw7FxcVMmTKFKVOmUFRU5HVIniopKeGEsWNpPHqU6dOnex2OicISv+nWrFmzWL16NTNnzkz6vM8//3z69+/foax///6cf/75SY/FmO40NDR4HYKnzjvvPI4ePQrAP//5z6Q/xtvExhK/iYmXHec89NBDXb43xkuq2v7/zp07szrZlZeXU1/v9JBeV1dHeXm5xxGZSCzxm5Q3bNgwZs2aBcB73vMehg0b5m1AxoSoqalp///48eNZm+yC/X40NTUB0NTU5Fm/H6ZrlvhNWli+fDkLFy7k5ptv9joUY9r5/X727t3Ltm3b2LZtG6qatckuVfr9MN2zxG/SxsUXX+x1CMZ0sGbNGnJycmhsbKSxsRHI3mSXKv1+mO5Z4jfGmB4qKSkhNzc3Ynm2SYV+P0xsLPEbY0wP+Xw+xo0b16Fs3LhxWZvsvO73w8TGEr8xxvTQli1b2LZtW4eybdu2sTVLO7DJy8trr5K79NJLk97vh4mNJX5jjOmhFStWRCy/7bbbkhxJaggEAqxatQpwbrvN5lsbU5klfmOM6aF3vOMdEcunTp2a5EhSg93Hnx4s8RtjTA9Fe1JkNj5B0u7jTx+W+E1MQjspMcY4VDXiLWzZyO7jTx/ZuYaauGzYsIH58+ezceNGr0MxJqWsWbOm0+18eXl5WZnsSkpKaG1t7VDW2tqalbc2pjpL/KZLgUCApUuXoqosXbrUGusYEyLSffzZ2mmNz+dDRDqUiUjW3tqYyizxmy5ZYx1jorNOa95WUVHR6cQgEAjw6KOPehSRicYSv4nKGusY0725c+cycOBAAAYOHJi1ndbceuutEcuXL1+e5EhMdyzxm6issY4x8Qm/1J1NFi5cGFe58Y4lfhOVPXTDmO6Vl5dz9OhRABoaGrK2Ouz888+nf//+Hcr69+/P+eef71FEJhpL/CYqq780pmtWHdbRQw891OV7kxos8Zsu2UM3jInOqsM6GjZsGLNmzQLgPe95D8OGDfM2IBORJX7Tpby8PG688UZEhEWLFtlDN4wJYdVhnS1fvpyFCxdy8803ex2KicISv0tEzhGRN0Rki4h8J8Lw/ycim0Vko4isEZFJXsTphVmzZrF69WpmzpzpdSjGpBSrDoss+IQ+k5os8QMikgvcApwLnAx8WkRODhttPTBbVWcCq4FfJDdKb40cOdLrEIxJSVYdZtKNJX7H+4EtqrpVVVuAB4ELQkdQ1adUtdF9+zwwPskxGmNSkFWHmXRja6hjHLAr5P1u4ANdjP954PFoA0XkWuBagIkTJ/ZFfMaYFBasDrMrYyYd2Bl/nETkM8Bs4JfRxlHVlao6W1Vn247AmOxg27pJF3bG76gGJoS8H++WdSAiJcB3gY+oanOSYjPGGGP6jJ3xO14EikVkiojkA5cBFaEjiMh7gNuBOap6wIMYjTHGmF6zxA+oagC4HngCeA1YpaqbROSHIjLHHe2XwCDgzyLysohURJmcMcYYk7LsUr9LVR8DHgsr+0HI/9nbI4cxxpiMYWf8xhjTB2pqarwOwZiYWOI3xphe2rBhA/Pnz2fjxo1eh2JMtyzxG2NMLwQCAZYuXYqqsnTpUgKBgNchGdMlS/zGGNML5eXl1NfXA1BXV0d5ebnHERnTNUv8xhjTQ36/n7KyMpqamgBoamqirKyMuro6jyMzJjpL/MYY00Nr1qyhra2tQ1lbWxuVlZUeRWRM9yzxG2NMD5WUlJCT03E3mpOTQ0mJ3f1rUpclfmOM6SGfz8eCBQsoLCwEoLCwkAULFrQ/pteYVGSJ3xhjemHu3Lntid7n8zF37lyPIzKma5b4jTGmF/Ly8rjxxhsRERYtWkRennWIalKbraHGGNNLs2bNYvXq1fZoXpMW7IzfGGP6gCV9ky4s8RtjjDFZxBK/McYYk0Us8RtjjDFZRFTV6xgymojUADt6MYkioLaPwumNVIgjFWKA1IgjFWKA1IgjFWKA1IgjFWKA3scxSVWt0USCWOJPcSKyVlVnWxypEUOqxJEKMaRKHKkQQ6rEkQoxpFIcJjK71G+MMcZkEUv8xhhjTBaxxJ/6VnodgCsV4kiFGCA14kiFGCA14kiFGCA14kiFGCB14jARWB2/McYYk0XsjN8YY4zJIpb4jTHGmCxiiT/FiMgwEVktIq+LyGsi8kER8YnIP0Skyv073IMYLhaRTSLSJiJJuU0nShy/dN9vFJG/iMgwD2L4kTv/l0XkSRE5IZExRIsjZNjXRURFpCjZMYjIEhGpdpfFyyJyXiJjiBaHW77QLdskIr9Idgwi8lDIctguIi8nMoYu4jhFRJ5341grIu/3IIZZIvKciLwiIv8rIkMSGYOJk6raK4VewD3AAvf/fGAY8AvgO27Zd4CfexDDScA04GlgtofL4uNAnlv2c4+WxZCQ4aXACi+Whfv/BOAJnE6iijxYFkuAbyRjfegmjo8ClUCBWz7Ki98jZPivgR94tCyeBM51y84DnvYghheBj7hlnwN+lMx1xF7d/GZeB2CvkB8DhgLbcBtdhpS/AYx1/x8LvJHsGEKGJyXxdxeHO85FwAMex3AjcJtXywJYDcwCticy8XexbiY18XcRxyqgxMsYQoYLsAso9mhZPAFc6v7/aeCPHsRwiLcbj08ANidrHbFX9y+71J9apgA1wF0isl5EykRkIDBaVfe64+wDRnsQQ7LFEsfngMe9iEFEfiIiu4ArgB8kMIaocYjIBUC1qm5I8PyjxuAOu96t+rgz0dVQXcRxInCGiPxXRJ4Rkfd5EEPQGcB+Va1KYAxdxfFV4Jfu+vkrnIPTZMewCbjAHedinORvUoQl/tSSB5yKcwb5HuAozqX9duocQifyHsxuY0iSLuMQke8CAeABL2JQ1e+q6gR3/tcnMIZocSwBFpH4g46uYvgOcBvwDuAUYC/OJW4v4sgDfMBpwDeBVSIiSY4h6NPAnxI071ji+BLwNXf9/BrwBw9i+BzwZRFZBwwGWhIYg4mX15cc7PX2CxgDbA95fwbwKMm91B8xhpD3T5OcS/1R4wCuBp4DBngVQ0jZROBVD+JYAxzAucS/HecgaCcwxsNlMdmjZfEo8HfgoyHlbwEjk70scBLhfmB8IpdDN8si9DK7AIeTHUPYOCcCLyR6edgr9ped8acQVd0H7BKRaW7RWcBmoAL4rFv2WeARD2JIqmhxiMg5wLeAOara6FEMxSGjXQC87kEcL6nqKFWdrKqTgd3Aqe64yYphs4iMDRntIuDVRMy/uziAv+I08ENETsRpZJaQp9R1s42UAK+r6u5EzDvGOPYAH3HLPgYkrMqhi/ViFICI5ADfA1YkKgYTP+u5L8WIyClAGc6OaytwDU6VzCqcs8sdwCWqWpfkGM4ElgMjgYPAy6r6iUTF0EUcLwIFgN8d7XlV/WKSYyjDucOhDef3+KKqVicqhmhxqGp9yPDtOFdiEvZI1ijLYhnOZX7FufJwnb7dHiWZcRwF7nRjacFpcPh/yYxBVetF5G6cdTIpiS7KspgB3Ixz9aEJ+LKqrktyDFcBX3FHKQduVEs2KcMSvzHGGJNF7FK/McYYk0Us8RtjjDFZxBK/McYYk0Us8RtjjDFZxBK/McYYk0Us8RuTBkSk1X3a2qsi8mcRGRBWHnxF7GVRRL7hPj3tZRF5UUSu6uP4honIl/tymsaYxLDb+YxJAyLSoKqD3P8fANap6m9Cy7v47BdxOte5WFUPu49IvUhV7+nD+CYDf1PVd/XVNI0xiWFn/Makn38B74xj/EXAl1T1MICqHg4mfRE5y324yivuQ3YK3PLtIlLk/j9bRJ52/1/ijve0iGwVkVJ3Hj8D3uFeUfhl33xNY0wiWOI3Jo2ISB5wLvCKW9Q/7FL/pWHjDwEGq+rWCNMqBO7GeYTru3F6evtSDGFMBz4BvB9YLCL9cB7M8paqnqKq3+zh1zPGJEGe1wEYY2LSX0Redv//F28/ce2Yqp7Sw2lOA7ap6pvu+3twuln9XTefe1RVm4FmETlAYh8TbYzpY5b4jUkPPUrwbp1+g4hMjXTW34UAb18RLAwb1hzyfyu2HzEmrdilfmMy30+BW9zL/ojIILdV/xvAZBEJthe4EnjG/X878F73/3kxzOMIznPXjTEpzhK/MektvI7/ZxHGuQ14CnhRRF7FqSpoU9UmnCep/VlEXsF52mDwqXI3ATeLyFqcs/ouqaof+Ld7u6E17jMmhdntfMYYY0wWsTN+Y4wxJotY4jfGGGOyiCV+Y4wxJotY4jfGGGOyiCV+Y4wxJotY4jfGGGOyiCV+Y4wxJov8f95mxKsczz59AAAAAElFTkSuQmCC;" parent="1" vertex="1">
                    <mxGeometry x="-868.37" y="1840" width="591.75" height="322.56" as="geometry"/>
                </mxCell>
                <mxCell id="fVUmnMzmdv8v57rQySdX-180" value="Tempo FLOW" style="text;html=1;strokeColor=none;fillColor=none;align=left;verticalAlign=middle;whiteSpace=wrap;rounded=0;shadow=0;glass=0;sketch=0;fontSize=50;fontColor=#000000;opacity=80;fontStyle=1" parent="1" vertex="1">
                    <mxGeometry x="376" y="230" width="544.44" height="30" as="geometry"/>
                </mxCell>
                <mxCell id="fVUmnMzmdv8v57rQySdX-181" style="edgeStyle=orthogonalEdgeStyle;rounded=1;jumpStyle=arc;orthogonalLoop=1;jettySize=auto;html=1;fontSize=33;fontColor=#000000;startArrow=none;startFill=0;endArrow=classic;endFill=1;endSize=5;strokeColor=#000000;strokeWidth=6;exitX=0;exitY=0.5;exitDx=0;exitDy=0;" parent="1" source="fVUmnMzmdv8v57rQySdX-182" target="fVUmnMzmdv8v57rQySdX-11" edge="1">
                    <mxGeometry relative="1" as="geometry">
                        <mxPoint x="-140" y="2545" as="targetPoint"/>
                        <Array as="points">
                            <mxPoint x="-572" y="2315"/>
                        </Array>
                    </mxGeometry>
                </mxCell>
                <mxCell id="fVUmnMzmdv8v57rQySdX-182" value="&lt;font style=&quot;font-size: 35px&quot;&gt;Get Next Config&lt;/font&gt;" style="rounded=1;whiteSpace=wrap;html=1;fontSize=16;strokeColor=#b85450;strokeWidth=4;fillColor=#f8cecc;glass=0;shadow=0;sketch=0;fontStyle=1" parent="1" vertex="1">
                    <mxGeometry x="389.15999999999997" y="2230" width="251.59" height="170" as="geometry"/>
                </mxCell>
                <mxCell id="fVUmnMzmdv8v57rQySdX-183" style="edgeStyle=orthogonalEdgeStyle;orthogonalLoop=1;jettySize=auto;html=1;entryX=1;entryY=0.5;entryDx=0;entryDy=0;fontSize=35;fontColor=#000000;startArrow=none;startFill=0;endArrow=classic;endFill=1;endSize=5;strokeColor=#000000;strokeWidth=6;rounded=1;exitX=1;exitY=0.5;exitDx=0;exitDy=0;" parent="1" source="fVUmnMzmdv8v57rQySdX-182" target="fVUmnMzmdv8v57rQySdX-7" edge="1">
                    <mxGeometry relative="1" as="geometry">
                        <Array as="points">
                            <mxPoint x="1000" y="2315"/>
                            <mxPoint x="1000" y="545"/>
                        </Array>
                    </mxGeometry>
                </mxCell>
                <mxCell id="fVUmnMzmdv8v57rQySdX-184" value="Reshape Weight&amp;nbsp; Tensor to Matrix" style="rounded=1;whiteSpace=wrap;html=1;fontSize=27;strokeColor=#b85450;strokeWidth=4;fillColor=#f8cecc;glass=0;shadow=0;sketch=0;fontStyle=1" parent="1" vertex="1">
                    <mxGeometry x="401.01" y="1163" width="229.62" height="120" as="geometry"/>
                </mxCell>
                <mxCell id="fVUmnMzmdv8v57rQySdX-185" style="edgeStyle=orthogonalEdgeStyle;rounded=1;jumpStyle=arc;orthogonalLoop=1;jettySize=auto;html=1;fontSize=15;fontColor=#000000;startArrow=none;startFill=0;endArrow=classic;endFill=1;endSize=5;strokeColor=#000000;strokeWidth=2;" parent="1" source="fVUmnMzmdv8v57rQySdX-186" target="fVUmnMzmdv8v57rQySdX-173" edge="1">
                    <mxGeometry relative="1" as="geometry"/>
                </mxCell>
                <mxCell id="fVUmnMzmdv8v57rQySdX-186" value="&lt;span style=&quot;font-size: 27px; text-align: right;&quot;&gt;Tile Based On Architecture then pad tiles&lt;/span&gt;" style="rounded=1;whiteSpace=wrap;html=1;fontSize=27;strokeColor=#b85450;strokeWidth=4;fillColor=#f8cecc;glass=0;shadow=0;sketch=0;fontStyle=1" parent="1" vertex="1">
                    <mxGeometry x="408.37" y="1330" width="213.14" height="131.71" as="geometry"/>
                </mxCell>
                <mxCell id="fVUmnMzmdv8v57rQySdX-187" value="Get Next Model" style="text;html=1;strokeColor=none;fillColor=none;align=right;verticalAlign=middle;whiteSpace=wrap;rounded=0;fontSize=21;fontStyle=1" parent="1" vertex="1">
                    <mxGeometry x="270.95" y="2110" width="94" height="30" as="geometry"/>
                </mxCell>
                <mxCell id="fVUmnMzmdv8v57rQySdX-188" value="Config search Complete" style="text;html=1;strokeColor=none;fillColor=none;align=right;verticalAlign=middle;whiteSpace=wrap;rounded=0;fontSize=21;fontStyle=1" parent="1" vertex="1">
                    <mxGeometry x="270.95" y="2350" width="94" height="30" as="geometry"/>
                </mxCell>
                <mxCell id="fVUmnMzmdv8v57rQySdX-189" value="" style="group" parent="1" vertex="1" connectable="0">
                    <mxGeometry x="-822.02" y="840" width="520" height="240" as="geometry"/>
                </mxCell>
                <mxCell id="fVUmnMzmdv8v57rQySdX-190" value="" style="shape=internalStorage;whiteSpace=wrap;html=1;backgroundOutline=1;rounded=1;fontSize=30;strokeColor=#23445d;strokeWidth=4;fillColor=#bac8d3;" parent="fVUmnMzmdv8v57rQySdX-189" vertex="1">
                    <mxGeometry width="440" height="160" as="geometry"/>
                </mxCell>
                <mxCell id="fVUmnMzmdv8v57rQySdX-191" value="" style="shape=internalStorage;whiteSpace=wrap;html=1;backgroundOutline=1;rounded=1;fontSize=30;strokeColor=#23445d;strokeWidth=4;fillColor=#bac8d3;" parent="fVUmnMzmdv8v57rQySdX-189" vertex="1">
                    <mxGeometry x="10" y="10" width="440" height="160" as="geometry"/>
                </mxCell>
                <mxCell id="fVUmnMzmdv8v57rQySdX-192" value="" style="shape=internalStorage;whiteSpace=wrap;html=1;backgroundOutline=1;rounded=1;fontSize=30;strokeColor=#23445d;strokeWidth=4;fillColor=#bac8d3;" parent="fVUmnMzmdv8v57rQySdX-189" vertex="1">
                    <mxGeometry x="20" y="20" width="440" height="160" as="geometry"/>
                </mxCell>
                <mxCell id="fVUmnMzmdv8v57rQySdX-193" value="" style="shape=internalStorage;whiteSpace=wrap;html=1;backgroundOutline=1;rounded=1;fontSize=30;strokeColor=#23445d;strokeWidth=4;fillColor=#bac8d3;" parent="fVUmnMzmdv8v57rQySdX-189" vertex="1">
                    <mxGeometry x="30" y="30" width="440" height="160" as="geometry"/>
                </mxCell>
                <mxCell id="fVUmnMzmdv8v57rQySdX-194" value="" style="shape=internalStorage;whiteSpace=wrap;html=1;backgroundOutline=1;rounded=1;fontSize=30;strokeColor=#23445d;strokeWidth=4;fillColor=#bac8d3;" parent="fVUmnMzmdv8v57rQySdX-189" vertex="1">
                    <mxGeometry x="40" y="40" width="440" height="160" as="geometry"/>
                </mxCell>
                <mxCell id="fVUmnMzmdv8v57rQySdX-195" value="" style="shape=internalStorage;whiteSpace=wrap;html=1;backgroundOutline=1;rounded=1;fontSize=30;strokeColor=#23445d;strokeWidth=4;fillColor=#bac8d3;" parent="fVUmnMzmdv8v57rQySdX-189" vertex="1">
                    <mxGeometry x="50" y="50" width="440" height="160" as="geometry"/>
                </mxCell>
                <mxCell id="fVUmnMzmdv8v57rQySdX-196" value="" style="shape=internalStorage;whiteSpace=wrap;html=1;backgroundOutline=1;rounded=1;fontSize=30;strokeColor=#23445d;strokeWidth=4;fillColor=#bac8d3;" parent="fVUmnMzmdv8v57rQySdX-189" vertex="1">
                    <mxGeometry x="60" y="60" width="440" height="160" as="geometry"/>
                </mxCell>
                <mxCell id="fVUmnMzmdv8v57rQySdX-197" value="" style="shape=internalStorage;whiteSpace=wrap;html=1;backgroundOutline=1;rounded=1;fontSize=30;strokeColor=#23445d;strokeWidth=4;fillColor=#bac8d3;" parent="fVUmnMzmdv8v57rQySdX-189" vertex="1">
                    <mxGeometry x="70" y="70" width="440" height="160" as="geometry"/>
                </mxCell>
                <mxCell id="fVUmnMzmdv8v57rQySdX-198" value="" style="shape=internalStorage;whiteSpace=wrap;html=1;backgroundOutline=1;rounded=1;fontSize=30;strokeColor=#23445d;strokeWidth=4;fillColor=#bac8d3;" parent="fVUmnMzmdv8v57rQySdX-189" vertex="1">
                    <mxGeometry x="80" y="80" width="440" height="160" as="geometry"/>
                </mxCell>
            </root>
        </mxGraphModel>
    </diagram>
</mxfile>